<svg width="18" height="22" viewBox="0 0 18 22" fill="none" xmlns="http://www.w3.org/2000/svg">
<path d="M14.7973 11.8003C14.8081 10.9657 15.0298 10.1473 15.4418 9.42134C15.8538 8.69538 16.4428 8.08544 17.1539 7.64827C16.7021 7.00311 16.1062 6.47217 15.4134 6.09762C14.7205 5.72306 13.9499 5.51522 13.1627 5.49059C11.4835 5.31433 9.85552 6.49542 8.99981 6.49542C8.12754 6.49542 6.81004 5.50809 5.39131 5.53728C4.47364 5.56693 3.57929 5.83378 2.79541 6.31184C2.01154 6.7899 1.36486 7.46286 0.918393 8.26515C-1.01561 11.6136 0.426982 16.5346 2.27959 19.2412C3.20649 20.5666 4.28977 22.047 5.70722 21.9945C7.09428 21.937 7.61232 21.11 9.28662 21.11C10.9454 21.11 11.4314 21.9945 12.8776 21.9611C14.366 21.937 15.3038 20.6299 16.1981 19.292C16.8641 18.3476 17.3766 17.3039 17.7166 16.1995C16.8518 15.8338 16.1139 15.2216 15.5948 14.4393C15.0757 13.657 14.7983 12.7392 14.7973 11.8003Z" fill="black"/>
<path d="M12.0656 3.71132C12.8772 2.73711 13.277 1.48494 13.1802 0.220703C11.9403 0.350924 10.7951 0.943483 9.97259 1.88031C9.57045 2.33798 9.26245 2.87041 9.0662 3.44718C8.86996 4.02395 8.78931 4.63375 8.82888 5.2417C9.44902 5.24809 10.0625 5.11368 10.6232 4.84859C11.1838 4.5835 11.6771 4.19465 12.0656 3.71132Z" fill="black"/>
</svg>
