<svg width="834" height="64" viewBox="0 0 834 64" fill="none" xmlns="http://www.w3.org/2000/svg">
<g opacity="0.3">
<path d="M1 32.7197C1 32.7197 93.3 -38.8079 196 32.7197" stroke="white" stroke-width="1.5" stroke-dasharray="5 5"/>
<path d="M181.219 39.4983C181.219 39.4983 200.334 45.0247 202.156 38.7637C203.978 32.5026 202.611 26.0282 196.694 17.1582" stroke="white" stroke-width="1.5" stroke-dasharray="4 4"/>
<path d="M631 32.7197C631 32.7197 723.3 -38.8079 826 32.7197" stroke="white" stroke-width="1.5" stroke-dasharray="5 5"/>
<path d="M811.219 39.4983C811.219 39.4983 830.334 45.0247 832.156 38.7637C833.978 32.5026 832.611 26.0282 826.694 17.1582" stroke="white" stroke-width="1.5" stroke-dasharray="4 4"/>
<path d="M331.481 31.2578C331.481 31.2578 423.781 102.785 526.481 31.2578" stroke="white" stroke-width="1.5" stroke-dasharray="5 5"/>
<path d="M511.7 24.4748C511.7 24.4748 530.816 18.9485 532.638 25.2094C534.46 31.4703 533.093 37.9446 527.176 46.8145" stroke="white" stroke-width="1.5" stroke-dasharray="4 4"/>
</g>
</svg>
