<svg width="96" height="104" viewBox="0 0 96 104" fill="none" xmlns="http://www.w3.org/2000/svg">
<g filter="url(#filter0_d_569_4295)">
<path fill-rule="evenodd" clip-rule="evenodd" d="M47.9364 16.9999C62.6375 16.9999 74.5552 28.8644 74.5552 43.4999C74.5552 58.1353 62.6375 69.9999 47.9364 69.9999C33.2352 69.9999 21.3176 58.1353 21.3176 43.4999C21.3176 28.8644 33.2352 16.9999 47.9364 16.9999Z" fill="#FF4361"/>
</g>
<path fill-rule="evenodd" clip-rule="evenodd" d="M42.4123 0.999936H52.4573C69.1001 0.999936 82.5918 14.4311 82.5918 30.9999V40.9999C82.5918 57.5682 69.1001 70.9998 52.4573 70.9998H42.4123C25.7695 70.9998 12.2779 57.5682 12.2779 40.9999V30.9999C12.2779 14.4311 25.7695 0.999936 42.4123 0.999936Z" fill="url(#paint0_linear_569_4295)"/>
<path fill-rule="evenodd" clip-rule="evenodd" d="M65.0576 31.8582C65.0633 31.9604 65.0559 32.0642 65.0302 32.1685L62.7377 41.3346C62.622 41.7959 62.208 42.1211 61.7321 42.1238L47.9771 42.1932C47.9754 42.1932 47.9737 42.1932 47.9718 42.1932H34.2169C33.7383 42.1932 33.3214 41.8668 33.2059 41.4029L30.9134 32.2018C30.8869 32.0953 30.8793 31.9884 30.886 31.8835C29.9991 31.6045 29.3541 30.7749 29.3541 29.7975C29.3541 28.5905 30.3357 27.6093 31.5424 27.6093C32.749 27.6093 33.7306 28.5905 33.7306 29.7975C33.7306 30.4765 33.4192 31.0841 32.9317 31.4862L35.8019 34.3765C36.5273 35.1072 37.5339 35.5265 38.5636 35.5265C39.7814 35.5265 40.9423 34.948 41.6734 33.9797L46.3904 27.7319C45.9942 27.3362 45.7488 26.7894 45.7488 26.1862C45.7488 24.9798 46.7303 23.998 47.937 23.998C49.1437 23.998 50.1253 24.9798 50.1253 26.1862C50.1253 26.7712 49.893 27.3018 49.5174 27.6948C49.5187 27.6964 49.5203 27.6981 49.5214 27.6996L54.2042 33.9647C54.9351 34.9421 56.1001 35.5265 57.3213 35.5265C58.3606 35.5265 59.3379 35.1217 60.0727 34.3873L62.9609 31.4996C62.4632 31.098 62.1434 30.4851 62.1434 29.7975C62.1434 28.5905 63.1251 27.6093 64.3318 27.6093C65.5383 27.6093 66.52 28.5905 66.52 29.7975C66.52 30.7486 65.9079 31.5582 65.0576 31.8582ZM62.514 45.4566C62.514 44.8819 62.0474 44.4152 61.4719 44.4152H34.518C33.9425 44.4152 33.4759 44.8819 33.4759 45.4566V47.9566C33.4759 48.5324 33.9425 48.9985 34.518 48.9985H61.4719C62.0474 48.9985 62.514 48.5324 62.514 47.9566V45.4566Z" fill="white"/>
<defs>
<filter id="filter0_d_569_4295" x="0.317627" y="9" width="95.2377" height="95" filterUnits="userSpaceOnUse" color-interpolation-filters="sRGB">
<feFlood flood-opacity="0" result="BackgroundImageFix"/>
<feColorMatrix in="SourceAlpha" type="matrix" values="0 0 0 0 0 0 0 0 0 0 0 0 0 0 0 0 0 0 127 0" result="hardAlpha"/>
<feOffset dy="13"/>
<feGaussianBlur stdDeviation="10.5"/>
<feColorMatrix type="matrix" values="0 0 0 0 0.992157 0 0 0 0 0.345098 0 0 0 0 0.447059 0 0 0 0.3 0"/>
<feBlend mode="normal" in2="BackgroundImageFix" result="effect1_dropShadow_569_4295"/>
<feBlend mode="normal" in="SourceGraphic" in2="effect1_dropShadow_569_4295" result="shape"/>
</filter>
<linearGradient id="paint0_linear_569_4295" x1="83.5963" y1="0" x2="11.597" y2="72.3221" gradientUnits="userSpaceOnUse">
<stop stop-color="#67E9F1"/>
<stop offset="1" stop-color="#24E795"/>
</linearGradient>
</defs>
</svg>
