<svg width="123" height="24" viewBox="0 0 123 24" fill="none" xmlns="http://www.w3.org/2000/svg">
<path d="M14.268 4.5099L7.134 9.01981L14.268 13.5297L7.134 18.0396L0 13.5053L7.134 8.99543L0 4.5099L7.134 0L14.268 4.5099ZM7.0971 19.4901L14.2311 14.9802L21.3651 19.4901L14.2311 24L7.0971 19.4901ZM14.268 13.5053L21.402 8.99543L14.268 4.5099L21.3651 0L28.4991 4.5099L21.3651 9.01981L28.4991 13.5297L21.3651 18.0396L14.268 13.5053Z" fill="#B7BEC9"/>
<path d="M34.0956 4.50897H39.8643C43.542 4.50897 46.5801 6.61765 46.5801 11.4323V12.444C46.5801 17.2952 43.7388 19.477 39.975 19.477H34.0956V4.50897ZM37.3182 7.2271V16.7467H39.7905C41.8815 16.7467 43.2837 15.3937 43.2837 12.383V11.5907C43.2837 8.58007 41.8077 7.2271 39.6798 7.2271H37.3182ZM48.2898 7.37337H50.8728L51.291 10.189C51.783 8.27535 53.0376 7.25148 55.3131 7.25148H56.1126V10.4815H54.7842C52.1643 10.4815 51.5247 11.3835 51.5247 13.9432V19.5135H48.339V7.37337H48.2898ZM56.7522 13.6872V13.3459C56.7522 9.28703 59.3721 7.06864 62.9391 7.06864C66.5799 7.06864 69.126 9.28703 69.126 13.3459V13.6872C69.126 17.673 66.6537 19.8183 62.9391 19.8183C58.9908 19.7817 56.7522 17.6852 56.7522 13.6872ZM65.8665 13.6507V13.3459C65.8665 11.091 64.7226 9.73802 62.9022 9.73802C61.1187 9.73802 59.9379 10.9813 59.9379 13.3459V13.6507C59.9379 15.8325 61.0818 17.0758 62.9022 17.0758C64.7226 17.0392 65.8665 15.8325 65.8665 13.6507ZM70.7988 7.37337H73.4556L73.7631 9.66489C74.4027 8.12908 75.768 7.06864 77.7852 7.06864C80.8971 7.06864 82.9512 9.28703 82.9512 13.3947V13.736C82.9512 17.7218 80.6757 19.8305 77.7852 19.8305C75.8541 19.8305 74.5257 18.965 73.8738 17.5755V23.7065H70.7619L70.7988 7.37337ZM79.7163 13.6507V13.3825C79.7163 10.9691 78.4617 9.77459 76.7889 9.77459C75.0054 9.77459 73.8246 11.1276 73.8246 13.3825V13.6141C73.8246 15.7594 74.9685 17.1123 76.752 17.1123C78.5847 17.0758 79.7163 15.9178 79.7163 13.6507ZM87.6621 17.2708L87.3915 19.4892H84.6609V3.31445H87.7728V9.51862C88.4616 7.93406 89.8269 7.06864 91.758 7.06864C94.6854 7.10521 96.8502 9.1042 96.8502 13.1265V13.5044C96.8502 17.5267 94.7961 19.8305 91.6842 19.8305C89.6301 19.7817 88.3017 18.8432 87.6621 17.2708ZM93.5784 13.5044V13.1997C93.5784 10.9813 92.3607 9.73802 90.651 9.73802C88.9044 9.73802 87.6867 11.1276 87.6867 13.2362V13.5044C87.6867 15.7594 88.8675 17.0758 90.6141 17.0758C92.4837 17.0758 93.5784 15.9178 93.5784 13.5044ZM98.2154 13.6872V13.3459C98.2154 9.28703 100.835 7.06864 104.402 7.06864C108.043 7.06864 110.589 9.28703 110.589 13.3459V13.6872C110.589 17.673 108.08 19.8183 104.402 19.8183C100.454 19.7817 98.2154 17.6852 98.2154 13.6872ZM107.354 13.6507V13.3459C107.354 11.091 106.21 9.73802 104.39 9.73802C102.607 9.73802 101.426 10.9813 101.426 13.3459V13.6507C101.426 15.8325 102.57 17.0758 104.39 17.0758C106.223 17.0392 107.354 15.8325 107.354 13.6507ZM114.759 13.1997L110.466 7.37337H114.144L116.616 11.0179L119.125 7.37337H122.766L118.412 13.1631L123 19.4892H119.396L116.592 15.4668L113.861 19.4892H110.097L114.759 13.1997Z" fill="#B7BEC9"/>
</svg>
