<svg width="277" height="218" viewBox="0 0 277 218" fill="none" xmlns="http://www.w3.org/2000/svg">
<path d="M18.712 98.49V100.164H13.402V103.854H17.542V105.528H13.402V111H11.35V98.49H18.712ZM19.9297 105.996C19.9297 105 20.1337 104.118 20.5417 103.35C20.9617 102.582 21.5257 101.988 22.2337 101.568C22.9537 101.136 23.7457 100.92 24.6097 100.92C25.3897 100.92 26.0677 101.076 26.6437 101.388C27.2317 101.688 27.6997 102.066 28.0477 102.522V101.082H30.1177V111H28.0477V109.524C27.6997 109.992 27.2257 110.382 26.6257 110.694C26.0257 111.006 25.3417 111.162 24.5737 111.162C23.7217 111.162 22.9417 110.946 22.2337 110.514C21.5257 110.07 20.9617 109.458 20.5417 108.678C20.1337 107.886 19.9297 106.992 19.9297 105.996ZM28.0477 106.032C28.0477 105.348 27.9037 104.754 27.6157 104.25C27.3397 103.746 26.9737 103.362 26.5177 103.098C26.0617 102.834 25.5697 102.702 25.0417 102.702C24.5137 102.702 24.0217 102.834 23.5657 103.098C23.1097 103.35 22.7377 103.728 22.4497 104.232C22.1737 104.724 22.0357 105.312 22.0357 105.996C22.0357 106.68 22.1737 107.28 22.4497 107.796C22.7377 108.312 23.1097 108.708 23.5657 108.984C24.0337 109.248 24.5257 109.38 25.0417 109.38C25.5697 109.38 26.0617 109.248 26.5177 108.984C26.9737 108.72 27.3397 108.336 27.6157 107.832C27.9037 107.316 28.0477 106.716 28.0477 106.032ZM36.4129 111.162C35.6329 111.162 34.9309 111.024 34.3069 110.748C33.6949 110.46 33.2089 110.076 32.8489 109.596C32.4889 109.104 32.2969 108.558 32.2729 107.958H34.3969C34.4329 108.378 34.6309 108.732 34.9909 109.02C35.3629 109.296 35.8249 109.434 36.3769 109.434C36.9529 109.434 37.3969 109.326 37.7089 109.11C38.0329 108.882 38.1949 108.594 38.1949 108.246C38.1949 107.874 38.0149 107.598 37.6549 107.418C37.3069 107.238 36.7489 107.04 35.9809 106.824C35.2369 106.62 34.6309 106.422 34.1629 106.23C33.6949 106.038 33.2869 105.744 32.9389 105.348C32.6029 104.952 32.4349 104.43 32.4349 103.782C32.4349 103.254 32.5909 102.774 32.9029 102.342C33.2149 101.898 33.6589 101.55 34.2349 101.298C34.8229 101.046 35.4949 100.92 36.2509 100.92C37.3789 100.92 38.2849 101.208 38.9689 101.784C39.6649 102.348 40.0369 103.122 40.0849 104.106H38.0329C37.9969 103.662 37.8169 103.308 37.4929 103.044C37.1689 102.78 36.7309 102.648 36.1789 102.648C35.6389 102.648 35.2249 102.75 34.9369 102.954C34.6489 103.158 34.5049 103.428 34.5049 103.764C34.5049 104.028 34.6009 104.25 34.7929 104.43C34.9849 104.61 35.2189 104.754 35.4949 104.862C35.7709 104.958 36.1789 105.084 36.7189 105.24C37.4389 105.432 38.0269 105.63 38.4829 105.834C38.9509 106.026 39.3529 106.314 39.6889 106.698C40.0249 107.082 40.1989 107.592 40.2109 108.228C40.2109 108.792 40.0549 109.296 39.7429 109.74C39.4309 110.184 38.9869 110.532 38.4109 110.784C37.8469 111.036 37.1809 111.162 36.4129 111.162ZM44.8221 102.756V108.246C44.8221 108.618 44.9061 108.888 45.0741 109.056C45.2541 109.212 45.5541 109.29 45.9741 109.29H47.2341V111H45.6141C44.6901 111 43.9821 110.784 43.4901 110.352C42.9981 109.92 42.7521 109.218 42.7521 108.246V102.756H41.5821V101.082H42.7521V98.616H44.8221V101.082H47.2341V102.756H44.8221ZM62.5492 102.216C62.5492 102.852 62.3992 103.452 62.0992 104.016C61.7992 104.58 61.3192 105.042 60.6592 105.402C59.9992 105.75 59.1532 105.924 58.1212 105.924H55.8532V111H53.8012V98.49H58.1212C59.0812 98.49 59.8912 98.658 60.5512 98.994C61.2232 99.318 61.7212 99.762 62.0452 100.326C62.3812 100.89 62.5492 101.52 62.5492 102.216ZM58.1212 104.25C58.9012 104.25 59.4832 104.076 59.8672 103.728C60.2512 103.368 60.4432 102.864 60.4432 102.216C60.4432 100.848 59.6692 100.164 58.1212 100.164H55.8532V104.25H58.1212ZM73.5963 105.798C73.5963 106.17 73.5723 106.506 73.5243 106.806H65.9463C66.0063 107.598 66.3003 108.234 66.8283 108.714C67.3563 109.194 68.0043 109.434 68.7723 109.434C69.8763 109.434 70.6563 108.972 71.1123 108.048H73.3262C73.0263 108.96 72.4803 109.71 71.6883 110.298C70.9083 110.874 69.9363 111.162 68.7723 111.162C67.8243 111.162 66.9723 110.952 66.2163 110.532C65.4723 110.1 64.8843 109.5 64.4523 108.732C64.0323 107.952 63.8223 107.052 63.8223 106.032C63.8223 105.012 64.0263 104.118 64.4343 103.35C64.8543 102.57 65.4363 101.97 66.1803 101.55C66.9363 101.13 67.8003 100.92 68.7723 100.92C69.7083 100.92 70.5423 101.124 71.2743 101.532C72.0063 101.94 72.5763 102.516 72.9843 103.26C73.3923 103.992 73.5963 104.838 73.5963 105.798ZM71.4543 105.15C71.4423 104.394 71.1723 103.788 70.6443 103.332C70.1163 102.876 69.4623 102.648 68.6823 102.648C67.9743 102.648 67.3683 102.876 66.8643 103.332C66.3603 103.776 66.0603 104.382 65.9643 105.15H71.4543ZM77.6676 102.522C77.9676 102.018 78.3636 101.628 78.8556 101.352C79.3596 101.064 79.9536 100.92 80.6376 100.92V103.044H80.1156C79.3116 103.044 78.6996 103.248 78.2796 103.656C77.8716 104.064 77.6676 104.772 77.6676 105.78V111H75.6156V101.082H77.6676V102.522ZM86.6818 102.756H84.8458V111H82.7758V102.756H81.6058V101.082H82.7758V100.38C82.7758 99.24 83.0758 98.412 83.6758 97.896C84.2878 97.368 85.2418 97.104 86.5378 97.104V98.814C85.9138 98.814 85.4758 98.934 85.2238 99.174C84.9718 99.402 84.8458 99.804 84.8458 100.38V101.082H86.6818V102.756ZM92.8024 111.162C91.8664 111.162 91.0204 110.952 90.2644 110.532C89.5084 110.1 88.9144 109.5 88.4824 108.732C88.0504 107.952 87.8344 107.052 87.8344 106.032C87.8344 105.024 88.0564 104.13 88.5004 103.35C88.9444 102.57 89.5504 101.97 90.3184 101.55C91.0864 101.13 91.9444 100.92 92.8924 100.92C93.8404 100.92 94.6984 101.13 95.4664 101.55C96.2344 101.97 96.8404 102.57 97.2844 103.35C97.7284 104.13 97.9504 105.024 97.9504 106.032C97.9504 107.04 97.7224 107.934 97.2664 108.714C96.8104 109.494 96.1864 110.1 95.3944 110.532C94.6144 110.952 93.7504 111.162 92.8024 111.162ZM92.8024 109.38C93.3304 109.38 93.8224 109.254 94.2784 109.002C94.7464 108.75 95.1244 108.372 95.4124 107.868C95.7004 107.364 95.8444 106.752 95.8444 106.032C95.8444 105.312 95.7064 104.706 95.4304 104.214C95.1544 103.71 94.7884 103.332 94.3324 103.08C93.8764 102.828 93.3844 102.702 92.8564 102.702C92.3284 102.702 91.8364 102.828 91.3804 103.08C90.9364 103.332 90.5824 103.71 90.3184 104.214C90.0544 104.706 89.9224 105.312 89.9224 106.032C89.9224 107.1 90.1924 107.928 90.7324 108.516C91.2844 109.092 91.9744 109.38 92.8024 109.38ZM102.031 102.522C102.331 102.018 102.727 101.628 103.219 101.352C103.723 101.064 104.317 100.92 105.001 100.92V103.044H104.479C103.675 103.044 103.063 103.248 102.643 103.656C102.235 104.064 102.031 104.772 102.031 105.78V111H99.9789V101.082H102.031V102.522ZM118.893 100.92C119.673 100.92 120.369 101.082 120.981 101.406C121.605 101.73 122.091 102.21 122.439 102.846C122.799 103.482 122.979 104.25 122.979 105.15V111H120.945V105.456C120.945 104.568 120.723 103.89 120.279 103.422C119.835 102.942 119.229 102.702 118.461 102.702C117.693 102.702 117.081 102.942 116.625 103.422C116.181 103.89 115.959 104.568 115.959 105.456V111H113.925V105.456C113.925 104.568 113.703 103.89 113.259 103.422C112.815 102.942 112.209 102.702 111.441 102.702C110.673 102.702 110.061 102.942 109.605 103.422C109.161 103.89 108.939 104.568 108.939 105.456V111H106.887V101.082H108.939V102.216C109.275 101.808 109.701 101.49 110.217 101.262C110.733 101.034 111.285 100.92 111.873 100.92C112.665 100.92 113.373 101.088 113.997 101.424C114.621 101.76 115.101 102.246 115.437 102.882C115.737 102.282 116.205 101.808 116.841 101.46C117.477 101.1 118.161 100.92 118.893 100.92ZM124.906 105.996C124.906 105 125.11 104.118 125.518 103.35C125.938 102.582 126.502 101.988 127.21 101.568C127.93 101.136 128.722 100.92 129.586 100.92C130.366 100.92 131.044 101.076 131.62 101.388C132.208 101.688 132.676 102.066 133.024 102.522V101.082H135.094V111H133.024V109.524C132.676 109.992 132.202 110.382 131.602 110.694C131.002 111.006 130.318 111.162 129.55 111.162C128.698 111.162 127.918 110.946 127.21 110.514C126.502 110.07 125.938 109.458 125.518 108.678C125.11 107.886 124.906 106.992 124.906 105.996ZM133.024 106.032C133.024 105.348 132.88 104.754 132.592 104.25C132.316 103.746 131.95 103.362 131.494 103.098C131.038 102.834 130.546 102.702 130.018 102.702C129.49 102.702 128.998 102.834 128.542 103.098C128.086 103.35 127.714 103.728 127.426 104.232C127.15 104.724 127.012 105.312 127.012 105.996C127.012 106.68 127.15 107.28 127.426 107.796C127.714 108.312 128.086 108.708 128.542 108.984C129.01 109.248 129.502 109.38 130.018 109.38C130.546 109.38 131.038 109.248 131.494 108.984C131.95 108.72 132.316 108.336 132.592 107.832C132.88 107.316 133.024 106.716 133.024 106.032ZM142.793 100.92C143.573 100.92 144.269 101.082 144.881 101.406C145.505 101.73 145.991 102.21 146.339 102.846C146.687 103.482 146.861 104.25 146.861 105.15V111H144.827V105.456C144.827 104.568 144.605 103.89 144.161 103.422C143.717 102.942 143.111 102.702 142.343 102.702C141.575 102.702 140.963 102.942 140.507 103.422C140.063 103.89 139.841 104.568 139.841 105.456V111H137.789V101.082H139.841V102.216C140.177 101.808 140.603 101.49 141.119 101.262C141.647 101.034 142.205 100.92 142.793 100.92ZM148.795 106.032C148.795 105.012 148.999 104.118 149.407 103.35C149.827 102.57 150.403 101.97 151.135 101.55C151.867 101.13 152.707 100.92 153.655 100.92C154.855 100.92 155.845 101.208 156.625 101.784C157.417 102.348 157.951 103.158 158.227 104.214H156.013C155.833 103.722 155.545 103.338 155.149 103.062C154.753 102.786 154.255 102.648 153.655 102.648C152.815 102.648 152.143 102.948 151.639 103.548C151.147 104.136 150.901 104.964 150.901 106.032C150.901 107.1 151.147 107.934 151.639 108.534C152.143 109.134 152.815 109.434 153.655 109.434C154.843 109.434 155.629 108.912 156.013 107.868H158.227C157.939 108.876 157.399 109.68 156.607 110.28C155.815 110.868 154.831 111.162 153.655 111.162C152.707 111.162 151.867 110.952 151.135 110.532C150.403 110.1 149.827 109.5 149.407 108.732C148.999 107.952 148.795 107.052 148.795 106.032ZM169.362 105.798C169.362 106.17 169.338 106.506 169.29 106.806H161.712C161.772 107.598 162.066 108.234 162.594 108.714C163.122 109.194 163.77 109.434 164.538 109.434C165.642 109.434 166.422 108.972 166.878 108.048H169.092C168.792 108.96 168.246 109.71 167.454 110.298C166.674 110.874 165.702 111.162 164.538 111.162C163.59 111.162 162.738 110.952 161.982 110.532C161.238 110.1 160.65 109.5 160.218 108.732C159.798 107.952 159.588 107.052 159.588 106.032C159.588 105.012 159.792 104.118 160.2 103.35C160.62 102.57 161.202 101.97 161.946 101.55C162.702 101.13 163.566 100.92 164.538 100.92C165.474 100.92 166.308 101.124 167.04 101.532C167.772 101.94 168.342 102.516 168.75 103.26C169.158 103.992 169.362 104.838 169.362 105.798ZM167.22 105.15C167.208 104.394 166.938 103.788 166.41 103.332C165.882 102.876 165.228 102.648 164.448 102.648C163.74 102.648 163.134 102.876 162.63 103.332C162.126 103.776 161.826 104.382 161.73 105.15H167.22Z" fill="#0F2137"/>
<path d="M18.47 149.07C18.1993 148.501 17.8073 148.062 17.294 147.754C16.7807 147.437 16.1833 147.278 15.502 147.278C14.8207 147.278 14.2047 147.437 13.654 147.754C13.1127 148.062 12.6833 148.51 12.366 149.098C12.058 149.677 11.904 150.349 11.904 151.114C11.904 151.879 12.058 152.551 12.366 153.13C12.6833 153.709 13.1127 154.157 13.654 154.474C14.2047 154.782 14.8207 154.936 15.502 154.936C16.454 154.936 17.238 154.651 17.854 154.082C18.47 153.513 18.8293 152.743 18.932 151.772H15.04V150.736H20.29V151.716C20.2153 152.519 19.9633 153.256 19.534 153.928C19.1047 154.591 18.54 155.118 17.84 155.51C17.14 155.893 16.3607 156.084 15.502 156.084C14.5967 156.084 13.7707 155.874 13.024 155.454C12.2773 155.025 11.6847 154.432 11.246 153.676C10.8167 152.92 10.602 152.066 10.602 151.114C10.602 150.162 10.8167 149.308 11.246 148.552C11.6847 147.787 12.2773 147.194 13.024 146.774C13.7707 146.345 14.5967 146.13 15.502 146.13C16.538 146.13 17.4527 146.387 18.246 146.9C19.0487 147.413 19.632 148.137 19.996 149.07H18.47ZM28.9745 151.87C28.9745 152.113 28.9605 152.369 28.9325 152.64H22.8005C22.8472 153.396 23.1038 153.989 23.5705 154.418C24.0465 154.838 24.6205 155.048 25.2925 155.048C25.8432 155.048 26.3005 154.922 26.6645 154.67C27.0378 154.409 27.2992 154.063 27.4485 153.634H28.8205C28.6152 154.371 28.2045 154.973 27.5885 155.44C26.9725 155.897 26.2072 156.126 25.2925 156.126C24.5645 156.126 23.9112 155.963 23.3325 155.636C22.7632 155.309 22.3152 154.847 21.9885 154.25C21.6618 153.643 21.4985 152.943 21.4985 152.15C21.4985 151.357 21.6572 150.661 21.9745 150.064C22.2918 149.467 22.7352 149.009 23.3045 148.692C23.8832 148.365 24.5458 148.202 25.2925 148.202C26.0205 148.202 26.6645 148.361 27.2245 148.678C27.7845 148.995 28.2138 149.434 28.5125 149.994C28.8205 150.545 28.9745 151.17 28.9745 151.87ZM27.6585 151.604C27.6585 151.119 27.5512 150.703 27.3365 150.358C27.1218 150.003 26.8278 149.737 26.4545 149.56C26.0905 149.373 25.6845 149.28 25.2365 149.28C24.5925 149.28 24.0418 149.485 23.5845 149.896C23.1365 150.307 22.8798 150.876 22.8145 151.604H27.6585ZM32.2101 149.378V153.9C32.2101 154.273 32.2895 154.539 32.4481 154.698C32.6068 154.847 32.8821 154.922 33.2741 154.922H34.2121V156H33.0641C32.3548 156 31.8228 155.837 31.4681 155.51C31.1135 155.183 30.9361 154.647 30.9361 153.9V149.378H29.9421V148.328H30.9361V146.396H32.2101V148.328H34.2121V149.378H32.2101ZM46.0962 148.328L41.4762 159.612H40.1602L41.6722 155.916L38.5782 148.328H39.9922L42.4002 154.544L44.7802 148.328H46.0962ZM50.7228 156.126C50.0042 156.126 49.3508 155.963 48.7628 155.636C48.1842 155.309 47.7268 154.847 47.3908 154.25C47.0642 153.643 46.9008 152.943 46.9008 152.15C46.9008 151.366 47.0688 150.675 47.4048 150.078C47.7502 149.471 48.2168 149.009 48.8048 148.692C49.3928 148.365 50.0508 148.202 50.7788 148.202C51.5068 148.202 52.1648 148.365 52.7528 148.692C53.3408 149.009 53.8028 149.467 54.1388 150.064C54.4842 150.661 54.6568 151.357 54.6568 152.15C54.6568 152.943 54.4795 153.643 54.1248 154.25C53.7795 154.847 53.3082 155.309 52.7108 155.636C52.1135 155.963 51.4508 156.126 50.7228 156.126ZM50.7228 155.006C51.1802 155.006 51.6095 154.899 52.0108 154.684C52.4122 154.469 52.7342 154.147 52.9768 153.718C53.2288 153.289 53.3548 152.766 53.3548 152.15C53.3548 151.534 53.2335 151.011 52.9908 150.582C52.7482 150.153 52.4308 149.835 52.0388 149.63C51.6468 149.415 51.2222 149.308 50.7648 149.308C50.2982 149.308 49.8688 149.415 49.4768 149.63C49.0942 149.835 48.7862 150.153 48.5528 150.582C48.3195 151.011 48.2028 151.534 48.2028 152.15C48.2028 152.775 48.3148 153.303 48.5388 153.732C48.7722 154.161 49.0802 154.483 49.4628 154.698C49.8455 154.903 50.2655 155.006 50.7228 155.006ZM63.1359 148.328V156H61.8619V154.866C61.6192 155.258 61.2786 155.566 60.8399 155.79C60.4106 156.005 59.9346 156.112 59.4119 156.112C58.8146 156.112 58.2779 155.991 57.8019 155.748C57.3259 155.496 56.9479 155.123 56.6679 154.628C56.3972 154.133 56.2619 153.531 56.2619 152.822V148.328H57.5219V152.654C57.5219 153.41 57.7132 153.993 58.0959 154.404C58.4786 154.805 59.0012 155.006 59.6639 155.006C60.3452 155.006 60.8819 154.796 61.2739 154.376C61.6659 153.956 61.8619 153.345 61.8619 152.542V148.328H63.1359ZM66.561 149.574C66.785 149.135 67.1023 148.795 67.513 148.552C67.933 148.309 68.4417 148.188 69.039 148.188V149.504H68.703C67.275 149.504 66.561 150.279 66.561 151.828V156H65.287V148.328H66.561V149.574ZM75.5161 149.756C75.7774 149.299 76.1601 148.925 76.6641 148.636C77.1681 148.347 77.7421 148.202 78.3861 148.202C79.0767 148.202 79.6974 148.365 80.2481 148.692C80.7987 149.019 81.2327 149.481 81.5501 150.078C81.8674 150.666 82.0261 151.352 82.0261 152.136C82.0261 152.911 81.8674 153.601 81.5501 154.208C81.2327 154.815 80.7941 155.286 80.2341 155.622C79.6834 155.958 79.0674 156.126 78.3861 156.126C77.7234 156.126 77.1401 155.981 76.6361 155.692C76.1414 155.403 75.7681 155.034 75.5161 154.586V156H74.2421V145.64H75.5161V149.756ZM80.7241 152.136C80.7241 151.557 80.6074 151.053 80.3741 150.624C80.1407 150.195 79.8234 149.868 79.4221 149.644C79.0301 149.42 78.5961 149.308 78.1201 149.308C77.6534 149.308 77.2194 149.425 76.8181 149.658C76.4261 149.882 76.1087 150.213 75.8661 150.652C75.6327 151.081 75.5161 151.581 75.5161 152.15C75.5161 152.729 75.6327 153.237 75.8661 153.676C76.1087 154.105 76.4261 154.437 76.8181 154.67C77.2194 154.894 77.6534 155.006 78.1201 155.006C78.5961 155.006 79.0301 154.894 79.4221 154.67C79.8234 154.437 80.1407 154.105 80.3741 153.676C80.6074 153.237 80.7241 152.724 80.7241 152.136ZM84.977 145.64V156H83.703V145.64H84.977ZM90.4943 156.126C89.7756 156.126 89.1223 155.963 88.5343 155.636C87.9556 155.309 87.4983 154.847 87.1623 154.25C86.8356 153.643 86.6723 152.943 86.6723 152.15C86.6723 151.366 86.8403 150.675 87.1763 150.078C87.5216 149.471 87.9883 149.009 88.5763 148.692C89.1643 148.365 89.8223 148.202 90.5503 148.202C91.2783 148.202 91.9363 148.365 92.5243 148.692C93.1123 149.009 93.5743 149.467 93.9103 150.064C94.2556 150.661 94.4283 151.357 94.4283 152.15C94.4283 152.943 94.251 153.643 93.8963 154.25C93.551 154.847 93.0796 155.309 92.4823 155.636C91.885 155.963 91.2223 156.126 90.4943 156.126ZM90.4943 155.006C90.9516 155.006 91.381 154.899 91.7823 154.684C92.1836 154.469 92.5056 154.147 92.7483 153.718C93.0003 153.289 93.1263 152.766 93.1263 152.15C93.1263 151.534 93.005 151.011 92.7623 150.582C92.5196 150.153 92.2023 149.835 91.8103 149.63C91.4183 149.415 90.9936 149.308 90.5363 149.308C90.0696 149.308 89.6403 149.415 89.2483 149.63C88.8656 149.835 88.5576 150.153 88.3243 150.582C88.091 151.011 87.9743 151.534 87.9743 152.15C87.9743 152.775 88.0863 153.303 88.3103 153.732C88.5436 154.161 88.8516 154.483 89.2343 154.698C89.617 154.903 90.037 155.006 90.4943 155.006ZM99.4494 156.126C98.7307 156.126 98.0774 155.963 97.4894 155.636C96.9107 155.309 96.4534 154.847 96.1174 154.25C95.7907 153.643 95.6274 152.943 95.6274 152.15C95.6274 151.366 95.7954 150.675 96.1314 150.078C96.4767 149.471 96.9434 149.009 97.5314 148.692C98.1194 148.365 98.7774 148.202 99.5054 148.202C100.233 148.202 100.891 148.365 101.479 148.692C102.067 149.009 102.529 149.467 102.865 150.064C103.211 150.661 103.383 151.357 103.383 152.15C103.383 152.943 103.206 153.643 102.851 154.25C102.506 154.847 102.035 155.309 101.437 155.636C100.84 155.963 100.177 156.126 99.4494 156.126ZM99.4494 155.006C99.9067 155.006 100.336 154.899 100.737 154.684C101.139 154.469 101.461 154.147 101.703 153.718C101.955 153.289 102.081 152.766 102.081 152.15C102.081 151.534 101.96 151.011 101.717 150.582C101.475 150.153 101.157 149.835 100.765 149.63C100.373 149.415 99.9487 149.308 99.4914 149.308C99.0247 149.308 98.5954 149.415 98.2034 149.63C97.8207 149.835 97.5127 150.153 97.2794 150.582C97.0461 151.011 96.9294 151.534 96.9294 152.15C96.9294 152.775 97.0414 153.303 97.2654 153.732C97.4987 154.161 97.8067 154.483 98.1894 154.698C98.5721 154.903 98.9921 155.006 99.4494 155.006ZM104.582 152.136C104.582 151.352 104.741 150.666 105.058 150.078C105.376 149.481 105.81 149.019 106.36 148.692C106.92 148.365 107.546 148.202 108.236 148.202C108.834 148.202 109.389 148.342 109.902 148.622C110.416 148.893 110.808 149.252 111.078 149.7V145.64H112.366V156H111.078V154.558C110.826 155.015 110.453 155.393 109.958 155.692C109.464 155.981 108.885 156.126 108.222 156.126C107.541 156.126 106.92 155.958 106.36 155.622C105.81 155.286 105.376 154.815 105.058 154.208C104.741 153.601 104.582 152.911 104.582 152.136ZM111.078 152.15C111.078 151.571 110.962 151.067 110.728 150.638C110.495 150.209 110.178 149.882 109.776 149.658C109.384 149.425 108.95 149.308 108.474 149.308C107.998 149.308 107.564 149.42 107.172 149.644C106.78 149.868 106.468 150.195 106.234 150.624C106.001 151.053 105.884 151.557 105.884 152.136C105.884 152.724 106.001 153.237 106.234 153.676C106.468 154.105 106.78 154.437 107.172 154.67C107.564 154.894 107.998 155.006 108.474 155.006C108.95 155.006 109.384 154.894 109.776 154.67C110.178 154.437 110.495 154.105 110.728 153.676C110.962 153.237 111.078 152.729 111.078 152.15ZM119.806 149.378V153.9C119.806 154.273 119.885 154.539 120.044 154.698C120.202 154.847 120.478 154.922 120.87 154.922H121.808V156H120.66C119.95 156 119.418 155.837 119.064 155.51C118.709 155.183 118.532 154.647 118.532 153.9V149.378H117.538V148.328H118.532V146.396H119.806V148.328H121.808V149.378H119.806ZM130.351 151.87C130.351 152.113 130.337 152.369 130.309 152.64H124.177C124.224 153.396 124.481 153.989 124.947 154.418C125.423 154.838 125.997 155.048 126.669 155.048C127.22 155.048 127.677 154.922 128.041 154.67C128.415 154.409 128.676 154.063 128.825 153.634H130.197C129.992 154.371 129.581 154.973 128.965 155.44C128.349 155.897 127.584 156.126 126.669 156.126C125.941 156.126 125.288 155.963 124.709 155.636C124.14 155.309 123.692 154.847 123.365 154.25C123.039 153.643 122.875 152.943 122.875 152.15C122.875 151.357 123.034 150.661 123.351 150.064C123.669 149.467 124.112 149.009 124.681 148.692C125.26 148.365 125.923 148.202 126.669 148.202C127.397 148.202 128.041 148.361 128.601 148.678C129.161 148.995 129.591 149.434 129.889 149.994C130.197 150.545 130.351 151.17 130.351 151.87ZM129.035 151.604C129.035 151.119 128.928 150.703 128.713 150.358C128.499 150.003 128.205 149.737 127.831 149.56C127.467 149.373 127.061 149.28 126.613 149.28C125.969 149.28 125.419 149.485 124.961 149.896C124.513 150.307 124.257 150.876 124.191 151.604H129.035ZM134.749 156.126C134.161 156.126 133.634 156.028 133.167 155.832C132.7 155.627 132.332 155.347 132.061 154.992C131.79 154.628 131.641 154.213 131.613 153.746H132.929C132.966 154.129 133.144 154.441 133.461 154.684C133.788 154.927 134.212 155.048 134.735 155.048C135.22 155.048 135.603 154.941 135.883 154.726C136.163 154.511 136.303 154.241 136.303 153.914C136.303 153.578 136.154 153.331 135.855 153.172C135.556 153.004 135.094 152.841 134.469 152.682C133.9 152.533 133.433 152.383 133.069 152.234C132.714 152.075 132.406 151.847 132.145 151.548C131.893 151.24 131.767 150.839 131.767 150.344C131.767 149.952 131.884 149.593 132.117 149.266C132.35 148.939 132.682 148.683 133.111 148.496C133.54 148.3 134.03 148.202 134.581 148.202C135.43 148.202 136.116 148.417 136.639 148.846C137.162 149.275 137.442 149.863 137.479 150.61H136.205C136.177 150.209 136.014 149.887 135.715 149.644C135.426 149.401 135.034 149.28 134.539 149.28C134.082 149.28 133.718 149.378 133.447 149.574C133.176 149.77 133.041 150.027 133.041 150.344C133.041 150.596 133.12 150.806 133.279 150.974C133.447 151.133 133.652 151.263 133.895 151.366C134.147 151.459 134.492 151.567 134.931 151.688C135.482 151.837 135.93 151.987 136.275 152.136C136.62 152.276 136.914 152.491 137.157 152.78C137.409 153.069 137.54 153.447 137.549 153.914C137.549 154.334 137.432 154.712 137.199 155.048C136.966 155.384 136.634 155.65 136.205 155.846C135.785 156.033 135.3 156.126 134.749 156.126ZM140.902 149.378V153.9C140.902 154.273 140.981 154.539 141.14 154.698C141.298 154.847 141.574 154.922 141.966 154.922H142.904V156H141.756C141.046 156 140.514 155.837 140.16 155.51C139.805 155.183 139.628 154.647 139.628 153.9V149.378H138.634V148.328H139.628V146.396H140.902V148.328H142.904V149.378H140.902ZM147.163 156.126C146.575 156.126 146.048 156.028 145.581 155.832C145.114 155.627 144.746 155.347 144.475 154.992C144.204 154.628 144.055 154.213 144.027 153.746H145.343C145.38 154.129 145.558 154.441 145.875 154.684C146.202 154.927 146.626 155.048 147.149 155.048C147.634 155.048 148.017 154.941 148.297 154.726C148.577 154.511 148.717 154.241 148.717 153.914C148.717 153.578 148.568 153.331 148.269 153.172C147.97 153.004 147.508 152.841 146.883 152.682C146.314 152.533 145.847 152.383 145.483 152.234C145.128 152.075 144.82 151.847 144.559 151.548C144.307 151.24 144.181 150.839 144.181 150.344C144.181 149.952 144.298 149.593 144.531 149.266C144.764 148.939 145.096 148.683 145.525 148.496C145.954 148.3 146.444 148.202 146.995 148.202C147.844 148.202 148.53 148.417 149.053 148.846C149.576 149.275 149.856 149.863 149.893 150.61H148.619C148.591 150.209 148.428 149.887 148.129 149.644C147.84 149.401 147.448 149.28 146.953 149.28C146.496 149.28 146.132 149.378 145.861 149.574C145.59 149.77 145.455 150.027 145.455 150.344C145.455 150.596 145.534 150.806 145.693 150.974C145.861 151.133 146.066 151.263 146.309 151.366C146.561 151.459 146.906 151.567 147.345 151.688C147.896 151.837 148.344 151.987 148.689 152.136C149.034 152.276 149.328 152.491 149.571 152.78C149.823 153.069 149.954 153.447 149.963 153.914C149.963 154.334 149.846 154.712 149.613 155.048C149.38 155.384 149.048 155.65 148.619 155.846C148.199 156.033 147.714 156.126 147.163 156.126ZM155.018 152.136C155.018 151.352 155.177 150.666 155.494 150.078C155.811 149.481 156.245 149.019 156.796 148.692C157.356 148.365 157.981 148.202 158.672 148.202C159.269 148.202 159.825 148.342 160.338 148.622C160.851 148.893 161.243 149.252 161.514 149.7V145.64H162.802V156H161.514V154.558C161.262 155.015 160.889 155.393 160.394 155.692C159.899 155.981 159.321 156.126 158.658 156.126C157.977 156.126 157.356 155.958 156.796 155.622C156.245 155.286 155.811 154.815 155.494 154.208C155.177 153.601 155.018 152.911 155.018 152.136ZM161.514 152.15C161.514 151.571 161.397 151.067 161.164 150.638C160.931 150.209 160.613 149.882 160.212 149.658C159.82 149.425 159.386 149.308 158.91 149.308C158.434 149.308 158 149.42 157.608 149.644C157.216 149.868 156.903 150.195 156.67 150.624C156.437 151.053 156.32 151.557 156.32 152.136C156.32 152.724 156.437 153.237 156.67 153.676C156.903 154.105 157.216 154.437 157.608 154.67C158 154.894 158.434 155.006 158.91 155.006C159.386 155.006 159.82 154.894 160.212 154.67C160.613 154.437 160.931 154.105 161.164 153.676C161.397 153.237 161.514 152.729 161.514 152.15ZM171.955 151.87C171.955 152.113 171.941 152.369 171.913 152.64H165.781C165.828 153.396 166.084 153.989 166.551 154.418C167.027 154.838 167.601 155.048 168.273 155.048C168.824 155.048 169.281 154.922 169.645 154.67C170.018 154.409 170.28 154.063 170.429 153.634H171.801C171.596 154.371 171.185 154.973 170.569 155.44C169.953 155.897 169.188 156.126 168.273 156.126C167.545 156.126 166.892 155.963 166.313 155.636C165.744 155.309 165.296 154.847 164.969 154.25C164.642 153.643 164.479 152.943 164.479 152.15C164.479 151.357 164.638 150.661 164.955 150.064C165.272 149.467 165.716 149.009 166.285 148.692C166.864 148.365 167.526 148.202 168.273 148.202C169.001 148.202 169.645 148.361 170.205 148.678C170.765 148.995 171.194 149.434 171.493 149.994C171.801 150.545 171.955 151.17 171.955 151.87ZM170.639 151.604C170.639 151.119 170.532 150.703 170.317 150.358C170.102 150.003 169.808 149.737 169.435 149.56C169.071 149.373 168.665 149.28 168.217 149.28C167.573 149.28 167.022 149.485 166.565 149.896C166.117 150.307 165.86 150.876 165.795 151.604H170.639ZM174.911 145.64V156H173.637V145.64H174.911ZM177.74 147.082C177.497 147.082 177.292 146.998 177.124 146.83C176.956 146.662 176.872 146.457 176.872 146.214C176.872 145.971 176.956 145.766 177.124 145.598C177.292 145.43 177.497 145.346 177.74 145.346C177.973 145.346 178.169 145.43 178.328 145.598C178.496 145.766 178.58 145.971 178.58 146.214C178.58 146.457 178.496 146.662 178.328 146.83C178.169 146.998 177.973 147.082 177.74 147.082ZM178.356 148.328V156H177.082V148.328H178.356ZM183.383 154.824L185.763 148.328H187.121L184.111 156H182.627L179.617 148.328H180.989L183.383 154.824ZM195.375 151.87C195.375 152.113 195.361 152.369 195.333 152.64H189.201C189.248 153.396 189.504 153.989 189.971 154.418C190.447 154.838 191.021 155.048 191.693 155.048C192.244 155.048 192.701 154.922 193.065 154.67C193.438 154.409 193.7 154.063 193.849 153.634H195.221C195.016 154.371 194.605 154.973 193.989 155.44C193.373 155.897 192.608 156.126 191.693 156.126C190.965 156.126 190.312 155.963 189.733 155.636C189.164 155.309 188.716 154.847 188.389 154.25C188.062 153.643 187.899 152.943 187.899 152.15C187.899 151.357 188.058 150.661 188.375 150.064C188.692 149.467 189.136 149.009 189.705 148.692C190.284 148.365 190.946 148.202 191.693 148.202C192.421 148.202 193.065 148.361 193.625 148.678C194.185 148.995 194.614 149.434 194.913 149.994C195.221 150.545 195.375 151.17 195.375 151.87ZM194.059 151.604C194.059 151.119 193.952 150.703 193.737 150.358C193.522 150.003 193.228 149.737 192.855 149.56C192.491 149.373 192.085 149.28 191.637 149.28C190.993 149.28 190.442 149.485 189.985 149.896C189.537 150.307 189.28 150.876 189.215 151.604H194.059ZM198.331 149.574C198.555 149.135 198.872 148.795 199.283 148.552C199.703 148.309 200.211 148.188 200.809 148.188V149.504H200.473C199.045 149.504 198.331 150.279 198.331 151.828V156H197.057V148.328H198.331V149.574ZM209.279 151.87C209.279 152.113 209.265 152.369 209.237 152.64H203.105C203.152 153.396 203.409 153.989 203.875 154.418C204.351 154.838 204.925 155.048 205.597 155.048C206.148 155.048 206.605 154.922 206.969 154.67C207.343 154.409 207.604 154.063 207.753 153.634H209.125C208.92 154.371 208.509 154.973 207.893 155.44C207.277 155.897 206.512 156.126 205.597 156.126C204.869 156.126 204.216 155.963 203.637 155.636C203.068 155.309 202.62 154.847 202.293 154.25C201.967 153.643 201.803 152.943 201.803 152.15C201.803 151.357 201.962 150.661 202.279 150.064C202.597 149.467 203.04 149.009 203.609 148.692C204.188 148.365 204.851 148.202 205.597 148.202C206.325 148.202 206.969 148.361 207.529 148.678C208.089 148.995 208.519 149.434 208.817 149.994C209.125 150.545 209.279 151.17 209.279 151.87ZM207.963 151.604C207.963 151.119 207.856 150.703 207.641 150.358C207.427 150.003 207.133 149.737 206.759 149.56C206.395 149.373 205.989 149.28 205.541 149.28C204.897 149.28 204.347 149.485 203.889 149.896C203.441 150.307 203.185 150.876 203.119 151.604H207.963ZM210.485 152.136C210.485 151.352 210.643 150.666 210.961 150.078C211.278 149.481 211.712 149.019 212.263 148.692C212.823 148.365 213.448 148.202 214.139 148.202C214.736 148.202 215.291 148.342 215.805 148.622C216.318 148.893 216.71 149.252 216.981 149.7V145.64H218.269V156H216.981V154.558C216.729 155.015 216.355 155.393 215.861 155.692C215.366 155.981 214.787 156.126 214.125 156.126C213.443 156.126 212.823 155.958 212.263 155.622C211.712 155.286 211.278 154.815 210.961 154.208C210.643 153.601 210.485 152.911 210.485 152.136ZM216.981 152.15C216.981 151.571 216.864 151.067 216.631 150.638C216.397 150.209 216.08 149.882 215.679 149.658C215.287 149.425 214.853 149.308 214.377 149.308C213.901 149.308 213.467 149.42 213.075 149.644C212.683 149.868 212.37 150.195 212.137 150.624C211.903 151.053 211.787 151.557 211.787 152.136C211.787 152.724 211.903 153.237 212.137 153.676C212.37 154.105 212.683 154.437 213.075 154.67C213.467 154.894 213.901 155.006 214.377 155.006C214.853 155.006 215.287 154.894 215.679 154.67C216.08 154.437 216.397 154.105 216.631 153.676C216.864 153.237 216.981 152.729 216.981 152.15ZM223.678 152.136C223.678 151.352 223.837 150.666 224.154 150.078C224.472 149.481 224.906 149.019 225.456 148.692C226.016 148.365 226.637 148.202 227.318 148.202C227.99 148.202 228.574 148.347 229.068 148.636C229.563 148.925 229.932 149.289 230.174 149.728V148.328H231.462V156H230.174V154.572C229.922 155.02 229.544 155.393 229.04 155.692C228.546 155.981 227.967 156.126 227.304 156.126C226.623 156.126 226.007 155.958 225.456 155.622C224.906 155.286 224.472 154.815 224.154 154.208C223.837 153.601 223.678 152.911 223.678 152.136ZM230.174 152.15C230.174 151.571 230.058 151.067 229.824 150.638C229.591 150.209 229.274 149.882 228.872 149.658C228.48 149.425 228.046 149.308 227.57 149.308C227.094 149.308 226.66 149.42 226.268 149.644C225.876 149.868 225.564 150.195 225.33 150.624C225.097 151.053 224.98 151.557 224.98 152.136C224.98 152.724 225.097 153.237 225.33 153.676C225.564 154.105 225.876 154.437 226.268 154.67C226.66 154.894 227.094 155.006 227.57 155.006C228.046 155.006 228.48 154.894 228.872 154.67C229.274 154.437 229.591 154.105 229.824 153.676C230.058 153.237 230.174 152.729 230.174 152.15ZM235.169 149.378V153.9C235.169 154.273 235.248 154.539 235.407 154.698C235.566 154.847 235.841 154.922 236.233 154.922H237.171V156H236.023C235.314 156 234.782 155.837 234.427 155.51C234.072 155.183 233.895 154.647 233.895 153.9V149.378H232.901V148.328H233.895V146.396H235.169V148.328H237.171V149.378H235.169ZM14.886 175.188C15.4647 175.188 15.9873 175.314 16.454 175.566C16.9207 175.809 17.2847 176.177 17.546 176.672C17.8167 177.167 17.952 177.769 17.952 178.478V183H16.692V178.66C16.692 177.895 16.5007 177.311 16.118 176.91C15.7353 176.499 15.2127 176.294 14.55 176.294C13.878 176.294 13.3413 176.504 12.94 176.924C12.548 177.344 12.352 177.955 12.352 178.758V183H11.078V172.64H12.352V176.42C12.604 176.028 12.9493 175.725 13.388 175.51C13.836 175.295 14.3353 175.188 14.886 175.188ZM23.3791 183.126C22.6604 183.126 22.0071 182.963 21.4191 182.636C20.8404 182.309 20.3831 181.847 20.0471 181.25C19.7204 180.643 19.5571 179.943 19.5571 179.15C19.5571 178.366 19.7251 177.675 20.0611 177.078C20.4064 176.471 20.8731 176.009 21.4611 175.692C22.0491 175.365 22.7071 175.202 23.4351 175.202C24.1631 175.202 24.8211 175.365 25.4091 175.692C25.9971 176.009 26.4591 176.467 26.7951 177.064C27.1404 177.661 27.3131 178.357 27.3131 179.15C27.3131 179.943 27.1357 180.643 26.7811 181.25C26.4357 181.847 25.9644 182.309 25.3671 182.636C24.7697 182.963 24.1071 183.126 23.3791 183.126ZM23.3791 182.006C23.8364 182.006 24.2657 181.899 24.6671 181.684C25.0684 181.469 25.3904 181.147 25.6331 180.718C25.8851 180.289 26.0111 179.766 26.0111 179.15C26.0111 178.534 25.8897 178.011 25.6471 177.582C25.4044 177.153 25.0871 176.835 24.6951 176.63C24.3031 176.415 23.8784 176.308 23.4211 176.308C22.9544 176.308 22.5251 176.415 22.1331 176.63C21.7504 176.835 21.4424 177.153 21.2091 177.582C20.9757 178.011 20.8591 178.534 20.8591 179.15C20.8591 179.775 20.9711 180.303 21.1951 180.732C21.4284 181.161 21.7364 181.483 22.1191 181.698C22.5017 181.903 22.9217 182.006 23.3791 182.006ZM38.2142 175.188C38.8115 175.188 39.3435 175.314 39.8102 175.566C40.2768 175.809 40.6455 176.177 40.9162 176.672C41.1868 177.167 41.3222 177.769 41.3222 178.478V183H40.0622V178.66C40.0622 177.895 39.8708 177.311 39.4882 176.91C39.1148 176.499 38.6062 176.294 37.9622 176.294C37.2995 176.294 36.7722 176.509 36.3802 176.938C35.9882 177.358 35.7922 177.969 35.7922 178.772V183H34.5322V178.66C34.5322 177.895 34.3408 177.311 33.9582 176.91C33.5848 176.499 33.0762 176.294 32.4322 176.294C31.7695 176.294 31.2422 176.509 30.8502 176.938C30.4582 177.358 30.2622 177.969 30.2622 178.772V183H28.9882V175.328H30.2622V176.434C30.5142 176.033 30.8502 175.725 31.2702 175.51C31.6995 175.295 32.1708 175.188 32.6842 175.188C33.3282 175.188 33.8975 175.333 34.3922 175.622C34.8868 175.911 35.2555 176.336 35.4982 176.896C35.7128 176.355 36.0675 175.935 36.5622 175.636C37.0568 175.337 37.6075 175.188 38.2142 175.188ZM50.412 178.87C50.412 179.113 50.398 179.369 50.37 179.64H44.238C44.2847 180.396 44.5413 180.989 45.008 181.418C45.484 181.838 46.058 182.048 46.73 182.048C47.2807 182.048 47.738 181.922 48.102 181.67C48.4753 181.409 48.7367 181.063 48.886 180.634H50.258C50.0527 181.371 49.642 181.973 49.026 182.44C48.41 182.897 47.6447 183.126 46.73 183.126C46.002 183.126 45.3487 182.963 44.77 182.636C44.2007 182.309 43.7527 181.847 43.426 181.25C43.0993 180.643 42.936 179.943 42.936 179.15C42.936 178.357 43.0947 177.661 43.412 177.064C43.7293 176.467 44.1727 176.009 44.742 175.692C45.3207 175.365 45.9833 175.202 46.73 175.202C47.458 175.202 48.102 175.361 48.662 175.678C49.222 175.995 49.6513 176.434 49.95 176.994C50.258 177.545 50.412 178.17 50.412 178.87ZM49.096 178.604C49.096 178.119 48.9887 177.703 48.774 177.358C48.5593 177.003 48.2653 176.737 47.892 176.56C47.528 176.373 47.122 176.28 46.674 176.28C46.03 176.28 45.4793 176.485 45.022 176.896C44.574 177.307 44.3173 177.876 44.252 178.604H49.096ZM55.35 179.15C55.35 178.357 55.5087 177.666 55.826 177.078C56.1434 176.481 56.582 176.019 57.142 175.692C57.7114 175.365 58.36 175.202 59.088 175.202C60.0307 175.202 60.8054 175.431 61.412 175.888C62.028 176.345 62.434 176.98 62.63 177.792H61.258C61.1274 177.325 60.8707 176.957 60.488 176.686C60.1147 176.415 59.648 176.28 59.088 176.28C58.36 176.28 57.772 176.532 57.324 177.036C56.876 177.531 56.652 178.235 56.652 179.15C56.652 180.074 56.876 180.788 57.324 181.292C57.772 181.796 58.36 182.048 59.088 182.048C59.648 182.048 60.1147 181.917 60.488 181.656C60.8614 181.395 61.118 181.021 61.258 180.536H62.63C62.4247 181.32 62.014 181.95 61.398 182.426C60.782 182.893 60.012 183.126 59.088 183.126C58.36 183.126 57.7114 182.963 57.142 182.636C56.582 182.309 56.1434 181.847 55.826 181.25C55.5087 180.653 55.35 179.953 55.35 179.15ZM67.676 183.126C66.9573 183.126 66.304 182.963 65.716 182.636C65.1373 182.309 64.68 181.847 64.344 181.25C64.0173 180.643 63.854 179.943 63.854 179.15C63.854 178.366 64.022 177.675 64.358 177.078C64.7033 176.471 65.17 176.009 65.758 175.692C66.346 175.365 67.004 175.202 67.732 175.202C68.46 175.202 69.118 175.365 69.706 175.692C70.294 176.009 70.756 176.467 71.092 177.064C71.4373 177.661 71.61 178.357 71.61 179.15C71.61 179.943 71.4326 180.643 71.078 181.25C70.7326 181.847 70.2613 182.309 69.664 182.636C69.0666 182.963 68.404 183.126 67.676 183.126ZM67.676 182.006C68.1333 182.006 68.5626 181.899 68.964 181.684C69.3653 181.469 69.6873 181.147 69.93 180.718C70.182 180.289 70.308 179.766 70.308 179.15C70.308 178.534 70.1866 178.011 69.944 177.582C69.7013 177.153 69.384 176.835 68.992 176.63C68.6 176.415 68.1753 176.308 67.718 176.308C67.2513 176.308 66.822 176.415 66.43 176.63C66.0473 176.835 65.7393 177.153 65.506 177.582C65.2726 178.011 65.156 178.534 65.156 179.15C65.156 179.775 65.268 180.303 65.492 180.732C65.7253 181.161 66.0333 181.483 66.416 181.698C66.7986 181.903 67.2186 182.006 67.676 182.006ZM74.559 172.64V183H73.285V172.64H74.559ZM78.0043 172.64V183H76.7303V172.64H78.0043ZM87.1757 178.87C87.1757 179.113 87.1617 179.369 87.1337 179.64H81.0017C81.0483 180.396 81.305 180.989 81.7717 181.418C82.2477 181.838 82.8217 182.048 83.4937 182.048C84.0443 182.048 84.5017 181.922 84.8657 181.67C85.239 181.409 85.5003 181.063 85.6497 180.634H87.0217C86.8163 181.371 86.4057 181.973 85.7897 182.44C85.1737 182.897 84.4083 183.126 83.4937 183.126C82.7657 183.126 82.1123 182.963 81.5337 182.636C80.9643 182.309 80.5163 181.847 80.1897 181.25C79.863 180.643 79.6997 179.943 79.6997 179.15C79.6997 178.357 79.8583 177.661 80.1757 177.064C80.493 176.467 80.9363 176.009 81.5057 175.692C82.0843 175.365 82.747 175.202 83.4937 175.202C84.2217 175.202 84.8657 175.361 85.4257 175.678C85.9857 175.995 86.415 176.434 86.7137 176.994C87.0217 177.545 87.1757 178.17 87.1757 178.87ZM85.8597 178.604C85.8597 178.119 85.7523 177.703 85.5377 177.358C85.323 177.003 85.029 176.737 84.6557 176.56C84.2917 176.373 83.8857 176.28 83.4377 176.28C82.7937 176.28 82.243 176.485 81.7857 176.896C81.3377 177.307 81.081 177.876 81.0157 178.604H85.8597ZM88.3813 179.15C88.3813 178.357 88.54 177.666 88.8573 177.078C89.1746 176.481 89.6133 176.019 90.1733 175.692C90.7426 175.365 91.3913 175.202 92.1193 175.202C93.062 175.202 93.8366 175.431 94.4433 175.888C95.0593 176.345 95.4653 176.98 95.6613 177.792H94.2893C94.1586 177.325 93.902 176.957 93.5193 176.686C93.146 176.415 92.6793 176.28 92.1193 176.28C91.3913 176.28 90.8033 176.532 90.3553 177.036C89.9073 177.531 89.6833 178.235 89.6833 179.15C89.6833 180.074 89.9073 180.788 90.3553 181.292C90.8033 181.796 91.3913 182.048 92.1193 182.048C92.6793 182.048 93.146 181.917 93.5193 181.656C93.8926 181.395 94.1493 181.021 94.2893 180.536H95.6613C95.456 181.32 95.0453 181.95 94.4293 182.426C93.8133 182.893 93.0433 183.126 92.1193 183.126C91.3913 183.126 90.7426 182.963 90.1733 182.636C89.6133 182.309 89.1746 181.847 88.8573 181.25C88.54 180.653 88.3813 179.953 88.3813 179.15ZM98.9152 176.378V180.9C98.9152 181.273 98.9945 181.539 99.1532 181.698C99.3119 181.847 99.5872 181.922 99.9792 181.922H100.917V183H99.7692C99.0599 183 98.5279 182.837 98.1732 182.51C97.8185 182.183 97.6412 181.647 97.6412 180.9V176.378H96.6472V175.328H97.6412V173.396H98.9152V175.328H100.917V176.378H98.9152ZM105.717 179.136C105.717 178.352 105.876 177.666 106.193 177.078C106.511 176.481 106.945 176.019 107.495 175.692C108.055 175.365 108.676 175.202 109.357 175.202C110.029 175.202 110.613 175.347 111.107 175.636C111.602 175.925 111.971 176.289 112.213 176.728V175.328H113.501V183H112.213V181.572C111.961 182.02 111.583 182.393 111.079 182.692C110.585 182.981 110.006 183.126 109.343 183.126C108.662 183.126 108.046 182.958 107.495 182.622C106.945 182.286 106.511 181.815 106.193 181.208C105.876 180.601 105.717 179.911 105.717 179.136ZM112.213 179.15C112.213 178.571 112.097 178.067 111.863 177.638C111.63 177.209 111.313 176.882 110.911 176.658C110.519 176.425 110.085 176.308 109.609 176.308C109.133 176.308 108.699 176.42 108.307 176.644C107.915 176.868 107.603 177.195 107.369 177.624C107.136 178.053 107.019 178.557 107.019 179.136C107.019 179.724 107.136 180.237 107.369 180.676C107.603 181.105 107.915 181.437 108.307 181.67C108.699 181.894 109.133 182.006 109.609 182.006C110.085 182.006 110.519 181.894 110.911 181.67C111.313 181.437 111.63 181.105 111.863 180.676C112.097 180.237 112.213 179.729 112.213 179.15ZM122.103 183.126C121.515 183.126 120.987 183.028 120.521 182.832C120.054 182.627 119.685 182.347 119.415 181.992C119.144 181.628 118.995 181.213 118.967 180.746H120.283C120.32 181.129 120.497 181.441 120.815 181.684C121.141 181.927 121.566 182.048 122.089 182.048C122.574 182.048 122.957 181.941 123.237 181.726C123.517 181.511 123.657 181.241 123.657 180.914C123.657 180.578 123.507 180.331 123.209 180.172C122.91 180.004 122.448 179.841 121.823 179.682C121.253 179.533 120.787 179.383 120.423 179.234C120.068 179.075 119.76 178.847 119.499 178.548C119.247 178.24 119.121 177.839 119.121 177.344C119.121 176.952 119.237 176.593 119.471 176.266C119.704 175.939 120.035 175.683 120.465 175.496C120.894 175.3 121.384 175.202 121.935 175.202C122.784 175.202 123.47 175.417 123.993 175.846C124.515 176.275 124.795 176.863 124.833 177.61H123.559C123.531 177.209 123.367 176.887 123.069 176.644C122.779 176.401 122.387 176.28 121.893 176.28C121.435 176.28 121.071 176.378 120.801 176.574C120.53 176.77 120.395 177.027 120.395 177.344C120.395 177.596 120.474 177.806 120.633 177.974C120.801 178.133 121.006 178.263 121.249 178.366C121.501 178.459 121.846 178.567 122.285 178.688C122.835 178.837 123.283 178.987 123.629 179.136C123.974 179.276 124.268 179.491 124.511 179.78C124.763 180.069 124.893 180.447 124.903 180.914C124.903 181.334 124.786 181.712 124.553 182.048C124.319 182.384 123.988 182.65 123.559 182.846C123.139 183.033 122.653 183.126 122.103 183.126ZM126.225 179.136C126.225 178.352 126.384 177.666 126.701 177.078C127.018 176.481 127.452 176.019 128.003 175.692C128.563 175.365 129.184 175.202 129.865 175.202C130.537 175.202 131.12 175.347 131.615 175.636C132.11 175.925 132.478 176.289 132.721 176.728V175.328H134.009V183H132.721V181.572C132.469 182.02 132.091 182.393 131.587 182.692C131.092 182.981 130.514 183.126 129.851 183.126C129.17 183.126 128.554 182.958 128.003 182.622C127.452 182.286 127.018 181.815 126.701 181.208C126.384 180.601 126.225 179.911 126.225 179.136ZM132.721 179.15C132.721 178.571 132.604 178.067 132.371 177.638C132.138 177.209 131.82 176.882 131.419 176.658C131.027 176.425 130.593 176.308 130.117 176.308C129.641 176.308 129.207 176.42 128.815 176.644C128.423 176.868 128.11 177.195 127.877 177.624C127.644 178.053 127.527 178.557 127.527 179.136C127.527 179.724 127.644 180.237 127.877 180.676C128.11 181.105 128.423 181.437 128.815 181.67C129.207 181.894 129.641 182.006 130.117 182.006C130.593 182.006 131.027 181.894 131.419 181.67C131.82 181.437 132.138 181.105 132.371 180.676C132.604 180.237 132.721 179.729 132.721 179.15ZM145.388 175.188C145.985 175.188 146.517 175.314 146.984 175.566C147.451 175.809 147.819 176.177 148.09 176.672C148.361 177.167 148.496 177.769 148.496 178.478V183H147.236V178.66C147.236 177.895 147.045 177.311 146.662 176.91C146.289 176.499 145.78 176.294 145.136 176.294C144.473 176.294 143.946 176.509 143.554 176.938C143.162 177.358 142.966 177.969 142.966 178.772V183H141.706V178.66C141.706 177.895 141.515 177.311 141.132 176.91C140.759 176.499 140.25 176.294 139.606 176.294C138.943 176.294 138.416 176.509 138.024 176.938C137.632 177.358 137.436 177.969 137.436 178.772V183H136.162V175.328H137.436V176.434C137.688 176.033 138.024 175.725 138.444 175.51C138.873 175.295 139.345 175.188 139.858 175.188C140.502 175.188 141.071 175.333 141.566 175.622C142.061 175.911 142.429 176.336 142.672 176.896C142.887 176.355 143.241 175.935 143.736 175.636C144.231 175.337 144.781 175.188 145.388 175.188ZM151.86 176.742C152.112 176.303 152.485 175.939 152.98 175.65C153.484 175.351 154.067 175.202 154.73 175.202C155.411 175.202 156.027 175.365 156.578 175.692C157.138 176.019 157.576 176.481 157.894 177.078C158.211 177.666 158.37 178.352 158.37 179.136C158.37 179.911 158.211 180.601 157.894 181.208C157.576 181.815 157.138 182.286 156.578 182.622C156.027 182.958 155.411 183.126 154.73 183.126C154.076 183.126 153.498 182.981 152.994 182.692C152.499 182.393 152.121 182.025 151.86 181.586V186.64H150.586V175.328H151.86V176.742ZM157.068 179.136C157.068 178.557 156.951 178.053 156.718 177.624C156.484 177.195 156.167 176.868 155.766 176.644C155.374 176.42 154.94 176.308 154.464 176.308C153.997 176.308 153.563 176.425 153.162 176.658C152.77 176.882 152.452 177.213 152.21 177.652C151.976 178.081 151.86 178.581 151.86 179.15C151.86 179.729 151.976 180.237 152.21 180.676C152.452 181.105 152.77 181.437 153.162 181.67C153.563 181.894 153.997 182.006 154.464 182.006C154.94 182.006 155.374 181.894 155.766 181.67C156.167 181.437 156.484 181.105 156.718 180.676C156.951 180.237 157.068 179.724 157.068 179.136ZM161.321 172.64V183H160.047V172.64H161.321ZM170.492 178.87C170.492 179.113 170.478 179.369 170.45 179.64H164.318C164.365 180.396 164.621 180.989 165.088 181.418C165.564 181.838 166.138 182.048 166.81 182.048C167.361 182.048 167.818 181.922 168.182 181.67C168.555 181.409 168.817 181.063 168.966 180.634H170.338C170.133 181.371 169.722 181.973 169.106 182.44C168.49 182.897 167.725 183.126 166.81 183.126C166.082 183.126 165.429 182.963 164.85 182.636C164.281 182.309 163.833 181.847 163.506 181.25C163.179 180.643 163.016 179.943 163.016 179.15C163.016 178.357 163.175 177.661 163.492 177.064C163.809 176.467 164.253 176.009 164.822 175.692C165.401 175.365 166.063 175.202 166.81 175.202C167.538 175.202 168.182 175.361 168.742 175.678C169.302 175.995 169.731 176.434 170.03 176.994C170.338 177.545 170.492 178.17 170.492 178.87ZM169.176 178.604C169.176 178.119 169.069 177.703 168.854 177.358C168.639 177.003 168.345 176.737 167.972 176.56C167.608 176.373 167.202 176.28 166.754 176.28C166.11 176.28 165.559 176.485 165.102 176.896C164.654 177.307 164.397 177.876 164.332 178.604H169.176ZM179.028 176.378H177.418V183H176.144V176.378H175.15V175.328H176.144V174.782C176.144 173.923 176.363 173.298 176.802 172.906C177.25 172.505 177.964 172.304 178.944 172.304V173.368C178.384 173.368 177.987 173.48 177.754 173.704C177.53 173.919 177.418 174.278 177.418 174.782V175.328H179.028V176.378ZM181.788 176.574C182.012 176.135 182.329 175.795 182.74 175.552C183.16 175.309 183.668 175.188 184.266 175.188V176.504H183.93C182.502 176.504 181.788 177.279 181.788 178.828V183H180.514V175.328H181.788V176.574ZM189.082 183.126C188.364 183.126 187.71 182.963 187.122 182.636C186.544 182.309 186.086 181.847 185.75 181.25C185.424 180.643 185.26 179.943 185.26 179.15C185.26 178.366 185.428 177.675 185.764 177.078C186.11 176.471 186.576 176.009 187.164 175.692C187.752 175.365 188.41 175.202 189.138 175.202C189.866 175.202 190.524 175.365 191.112 175.692C191.7 176.009 192.162 176.467 192.498 177.064C192.844 177.661 193.016 178.357 193.016 179.15C193.016 179.943 192.839 180.643 192.484 181.25C192.139 181.847 191.668 182.309 191.07 182.636C190.473 182.963 189.81 183.126 189.082 183.126ZM189.082 182.006C189.54 182.006 189.969 181.899 190.37 181.684C190.772 181.469 191.094 181.147 191.336 180.718C191.588 180.289 191.714 179.766 191.714 179.15C191.714 178.534 191.593 178.011 191.35 177.582C191.108 177.153 190.79 176.835 190.398 176.63C190.006 176.415 189.582 176.308 189.124 176.308C188.658 176.308 188.228 176.415 187.836 176.63C187.454 176.835 187.146 177.153 186.912 177.582C186.679 178.011 186.562 178.534 186.562 179.15C186.562 179.775 186.674 180.303 186.898 180.732C187.132 181.161 187.44 181.483 187.822 181.698C188.205 181.903 188.625 182.006 189.082 182.006ZM203.917 175.188C204.515 175.188 205.047 175.314 205.513 175.566C205.98 175.809 206.349 176.177 206.619 176.672C206.89 177.167 207.025 177.769 207.025 178.478V183H205.765V178.66C205.765 177.895 205.574 177.311 205.191 176.91C204.818 176.499 204.309 176.294 203.665 176.294C203.003 176.294 202.475 176.509 202.083 176.938C201.691 177.358 201.495 177.969 201.495 178.772V183H200.235V178.66C200.235 177.895 200.044 177.311 199.661 176.91C199.288 176.499 198.779 176.294 198.135 176.294C197.473 176.294 196.945 176.509 196.553 176.938C196.161 177.358 195.965 177.969 195.965 178.772V183H194.691V175.328H195.965V176.434C196.217 176.033 196.553 175.725 196.973 175.51C197.403 175.295 197.874 175.188 198.387 175.188C199.031 175.188 199.601 175.333 200.095 175.622C200.59 175.911 200.959 176.336 201.201 176.896C201.416 176.355 201.771 175.935 202.265 175.636C202.76 175.337 203.311 175.188 203.917 175.188ZM214.402 176.378V180.9C214.402 181.273 214.481 181.539 214.64 181.698C214.798 181.847 215.074 181.922 215.466 181.922H216.404V183H215.256C214.546 183 214.014 182.837 213.66 182.51C213.305 182.183 213.128 181.647 213.128 180.9V176.378H212.134V175.328H213.128V173.396H214.402V175.328H216.404V176.378H214.402ZM221.755 175.188C222.334 175.188 222.856 175.314 223.323 175.566C223.79 175.809 224.154 176.177 224.415 176.672C224.686 177.167 224.821 177.769 224.821 178.478V183H223.561V178.66C223.561 177.895 223.37 177.311 222.987 176.91C222.604 176.499 222.082 176.294 221.419 176.294C220.747 176.294 220.21 176.504 219.809 176.924C219.417 177.344 219.221 177.955 219.221 178.758V183H217.947V172.64H219.221V176.42C219.473 176.028 219.818 175.725 220.257 175.51C220.705 175.295 221.204 175.188 221.755 175.188ZM233.902 178.87C233.902 179.113 233.888 179.369 233.86 179.64H227.728C227.775 180.396 228.032 180.989 228.498 181.418C228.974 181.838 229.548 182.048 230.22 182.048C230.771 182.048 231.228 181.922 231.592 181.67C231.966 181.409 232.227 181.063 232.376 180.634H233.748C233.543 181.371 233.132 181.973 232.516 182.44C231.9 182.897 231.135 183.126 230.22 183.126C229.492 183.126 228.839 182.963 228.26 182.636C227.691 182.309 227.243 181.847 226.916 181.25C226.59 180.643 226.426 179.943 226.426 179.15C226.426 178.357 226.585 177.661 226.902 177.064C227.22 176.467 227.663 176.009 228.232 175.692C228.811 175.365 229.474 175.202 230.22 175.202C230.948 175.202 231.592 175.361 232.152 175.678C232.712 175.995 233.142 176.434 233.44 176.994C233.748 177.545 233.902 178.17 233.902 178.87ZM232.586 178.604C232.586 178.119 232.479 177.703 232.264 177.358C232.05 177.003 231.756 176.737 231.382 176.56C231.018 176.373 230.612 176.28 230.164 176.28C229.52 176.28 228.97 176.485 228.512 176.896C228.064 177.307 227.808 177.876 227.742 178.604H232.586ZM17.686 202.328L13.066 213.612H11.75L13.262 209.916L10.168 202.328H11.582L13.99 208.544L16.37 202.328H17.686ZM22.3127 210.126C21.594 210.126 20.9407 209.963 20.3527 209.636C19.774 209.309 19.3167 208.847 18.9807 208.25C18.654 207.643 18.4907 206.943 18.4907 206.15C18.4907 205.366 18.6587 204.675 18.9947 204.078C19.34 203.471 19.8067 203.009 20.3947 202.692C20.9827 202.365 21.6407 202.202 22.3687 202.202C23.0967 202.202 23.7547 202.365 24.3427 202.692C24.9307 203.009 25.3927 203.467 25.7287 204.064C26.074 204.661 26.2467 205.357 26.2467 206.15C26.2467 206.943 26.0693 207.643 25.7147 208.25C25.3693 208.847 24.898 209.309 24.3007 209.636C23.7033 209.963 23.0407 210.126 22.3127 210.126ZM22.3127 209.006C22.77 209.006 23.1993 208.899 23.6007 208.684C24.002 208.469 24.324 208.147 24.5667 207.718C24.8187 207.289 24.9447 206.766 24.9447 206.15C24.9447 205.534 24.8233 205.011 24.5807 204.582C24.338 204.153 24.0207 203.835 23.6287 203.63C23.2367 203.415 22.812 203.308 22.3547 203.308C21.888 203.308 21.4587 203.415 21.0667 203.63C20.684 203.835 20.376 204.153 20.1427 204.582C19.9093 205.011 19.7927 205.534 19.7927 206.15C19.7927 206.775 19.9047 207.303 20.1287 207.732C20.362 208.161 20.67 208.483 21.0527 208.698C21.4353 208.903 21.8553 209.006 22.3127 209.006ZM34.7258 202.328V210H33.4518V208.866C33.2091 209.258 32.8684 209.566 32.4298 209.79C32.0004 210.005 31.5244 210.112 31.0018 210.112C30.4044 210.112 29.8678 209.991 29.3918 209.748C28.9158 209.496 28.5378 209.123 28.2578 208.628C27.9871 208.133 27.8518 207.531 27.8518 206.822V202.328H29.1118V206.654C29.1118 207.41 29.3031 207.993 29.6858 208.404C30.0684 208.805 30.5911 209.006 31.2538 209.006C31.9351 209.006 32.4718 208.796 32.8638 208.376C33.2558 207.956 33.4518 207.345 33.4518 206.542V202.328H34.7258ZM38.1508 203.574C38.3748 203.135 38.6922 202.795 39.1028 202.552C39.5228 202.309 40.0315 202.188 40.6288 202.188V203.504H40.2928C38.8648 203.504 38.1508 204.279 38.1508 205.828V210H36.8768V202.328H38.1508V203.574ZM47.1059 203.756C47.3672 203.299 47.7499 202.925 48.2539 202.636C48.7579 202.347 49.3319 202.202 49.9759 202.202C50.6666 202.202 51.2872 202.365 51.8379 202.692C52.3886 203.019 52.8226 203.481 53.1399 204.078C53.4572 204.666 53.6159 205.352 53.6159 206.136C53.6159 206.911 53.4572 207.601 53.1399 208.208C52.8226 208.815 52.3839 209.286 51.8239 209.622C51.2732 209.958 50.6572 210.126 49.9759 210.126C49.3132 210.126 48.7299 209.981 48.2259 209.692C47.7312 209.403 47.3579 209.034 47.1059 208.586V210H45.8319V199.64H47.1059V203.756ZM52.3139 206.136C52.3139 205.557 52.1972 205.053 51.9639 204.624C51.7306 204.195 51.4132 203.868 51.0119 203.644C50.6199 203.42 50.1859 203.308 49.7099 203.308C49.2432 203.308 48.8092 203.425 48.4079 203.658C48.0159 203.882 47.6986 204.213 47.4559 204.652C47.2226 205.081 47.1059 205.581 47.1059 206.15C47.1059 206.729 47.2226 207.237 47.4559 207.676C47.6986 208.105 48.0159 208.437 48.4079 208.67C48.8092 208.894 49.2432 209.006 49.7099 209.006C50.1859 209.006 50.6199 208.894 51.0119 208.67C51.4132 208.437 51.7306 208.105 51.9639 207.676C52.1972 207.237 52.3139 206.724 52.3139 206.136ZM56.5668 199.64V210H55.2928V199.64H56.5668ZM62.0842 210.126C61.3655 210.126 60.7122 209.963 60.1242 209.636C59.5455 209.309 59.0882 208.847 58.7522 208.25C58.4255 207.643 58.2622 206.943 58.2622 206.15C58.2622 205.366 58.4302 204.675 58.7662 204.078C59.1115 203.471 59.5782 203.009 60.1662 202.692C60.7542 202.365 61.4122 202.202 62.1402 202.202C62.8682 202.202 63.5262 202.365 64.1142 202.692C64.7022 203.009 65.1642 203.467 65.5002 204.064C65.8455 204.661 66.0182 205.357 66.0182 206.15C66.0182 206.943 65.8408 207.643 65.4862 208.25C65.1408 208.847 64.6695 209.309 64.0722 209.636C63.4748 209.963 62.8122 210.126 62.0842 210.126ZM62.0842 209.006C62.5415 209.006 62.9708 208.899 63.3722 208.684C63.7735 208.469 64.0955 208.147 64.3382 207.718C64.5902 207.289 64.7162 206.766 64.7162 206.15C64.7162 205.534 64.5948 205.011 64.3522 204.582C64.1095 204.153 63.7922 203.835 63.4002 203.63C63.0082 203.415 62.5835 203.308 62.1262 203.308C61.6595 203.308 61.2302 203.415 60.8382 203.63C60.4555 203.835 60.1475 204.153 59.9142 204.582C59.6808 205.011 59.5642 205.534 59.5642 206.15C59.5642 206.775 59.6762 207.303 59.9002 207.732C60.1335 208.161 60.4415 208.483 60.8242 208.698C61.2068 208.903 61.6268 209.006 62.0842 209.006ZM71.0392 210.126C70.3206 210.126 69.6672 209.963 69.0792 209.636C68.5006 209.309 68.0432 208.847 67.7072 208.25C67.3806 207.643 67.2172 206.943 67.2172 206.15C67.2172 205.366 67.3852 204.675 67.7212 204.078C68.0666 203.471 68.5332 203.009 69.1212 202.692C69.7092 202.365 70.3672 202.202 71.0952 202.202C71.8232 202.202 72.4812 202.365 73.0692 202.692C73.6572 203.009 74.1192 203.467 74.4552 204.064C74.8006 204.661 74.9732 205.357 74.9732 206.15C74.9732 206.943 74.7959 207.643 74.4412 208.25C74.0959 208.847 73.6246 209.309 73.0272 209.636C72.4299 209.963 71.7672 210.126 71.0392 210.126ZM71.0392 209.006C71.4966 209.006 71.9259 208.899 72.3272 208.684C72.7286 208.469 73.0506 208.147 73.2932 207.718C73.5452 207.289 73.6712 206.766 73.6712 206.15C73.6712 205.534 73.5499 205.011 73.3072 204.582C73.0646 204.153 72.7472 203.835 72.3552 203.63C71.9632 203.415 71.5386 203.308 71.0812 203.308C70.6146 203.308 70.1852 203.415 69.7932 203.63C69.4106 203.835 69.1026 204.153 68.8692 204.582C68.6359 205.011 68.5192 205.534 68.5192 206.15C68.5192 206.775 68.6312 207.303 68.8552 207.732C69.0886 208.161 69.3966 208.483 69.7792 208.698C70.1619 208.903 70.5819 209.006 71.0392 209.006ZM76.1723 206.136C76.1723 205.352 76.331 204.666 76.6483 204.078C76.9656 203.481 77.3996 203.019 77.9503 202.692C78.5103 202.365 79.1356 202.202 79.8263 202.202C80.4236 202.202 80.979 202.342 81.4923 202.622C82.0056 202.893 82.3976 203.252 82.6683 203.7V199.64H83.9563V210H82.6683V208.558C82.4163 209.015 82.043 209.393 81.5483 209.692C81.0536 209.981 80.475 210.126 79.8123 210.126C79.131 210.126 78.5103 209.958 77.9503 209.622C77.3996 209.286 76.9656 208.815 76.6483 208.208C76.331 207.601 76.1723 206.911 76.1723 206.136ZM82.6683 206.15C82.6683 205.571 82.5516 205.067 82.3183 204.638C82.085 204.209 81.7676 203.882 81.3663 203.658C80.9743 203.425 80.5403 203.308 80.0643 203.308C79.5883 203.308 79.1543 203.42 78.7623 203.644C78.3703 203.868 78.0576 204.195 77.8243 204.624C77.591 205.053 77.4743 205.557 77.4743 206.136C77.4743 206.724 77.591 207.237 77.8243 207.676C78.0576 208.105 78.3703 208.437 78.7623 208.67C79.1543 208.894 79.5883 209.006 80.0643 209.006C80.5403 209.006 80.9743 208.894 81.3663 208.67C81.7676 208.437 82.085 208.105 82.3183 207.676C82.5516 207.237 82.6683 206.729 82.6683 206.15ZM91.3957 203.378V207.9C91.3957 208.273 91.475 208.539 91.6337 208.698C91.7923 208.847 92.0677 208.922 92.4597 208.922H93.3977V210H92.2497C91.5403 210 91.0083 209.837 90.6537 209.51C90.299 209.183 90.1217 208.647 90.1217 207.9V203.378H89.1277V202.328H90.1217V200.396H91.3957V202.328H93.3977V203.378H91.3957ZM101.941 205.87C101.941 206.113 101.927 206.369 101.899 206.64H95.7673C95.8139 207.396 96.0706 207.989 96.5373 208.418C97.0133 208.838 97.5873 209.048 98.2593 209.048C98.8099 209.048 99.2673 208.922 99.6313 208.67C100.005 208.409 100.266 208.063 100.415 207.634H101.787C101.582 208.371 101.171 208.973 100.555 209.44C99.9393 209.897 99.1739 210.126 98.2593 210.126C97.5313 210.126 96.8779 209.963 96.2993 209.636C95.7299 209.309 95.2819 208.847 94.9553 208.25C94.6286 207.643 94.4653 206.943 94.4653 206.15C94.4653 205.357 94.6239 204.661 94.9413 204.064C95.2586 203.467 95.7019 203.009 96.2713 202.692C96.8499 202.365 97.5126 202.202 98.2593 202.202C98.9873 202.202 99.6313 202.361 100.191 202.678C100.751 202.995 101.181 203.434 101.479 203.994C101.787 204.545 101.941 205.17 101.941 205.87ZM100.625 205.604C100.625 205.119 100.518 204.703 100.303 204.358C100.089 204.003 99.7946 203.737 99.4213 203.56C99.0573 203.373 98.6513 203.28 98.2033 203.28C97.5593 203.28 97.0086 203.485 96.5513 203.896C96.1033 204.307 95.8466 204.876 95.7813 205.604H100.625ZM106.339 210.126C105.751 210.126 105.224 210.028 104.757 209.832C104.29 209.627 103.922 209.347 103.651 208.992C103.38 208.628 103.231 208.213 103.203 207.746H104.519C104.556 208.129 104.734 208.441 105.051 208.684C105.378 208.927 105.802 209.048 106.325 209.048C106.81 209.048 107.193 208.941 107.473 208.726C107.753 208.511 107.893 208.241 107.893 207.914C107.893 207.578 107.744 207.331 107.445 207.172C107.146 207.004 106.684 206.841 106.059 206.682C105.49 206.533 105.023 206.383 104.659 206.234C104.304 206.075 103.996 205.847 103.735 205.548C103.483 205.24 103.357 204.839 103.357 204.344C103.357 203.952 103.474 203.593 103.707 203.266C103.94 202.939 104.272 202.683 104.701 202.496C105.13 202.3 105.62 202.202 106.171 202.202C107.02 202.202 107.706 202.417 108.229 202.846C108.752 203.275 109.032 203.863 109.069 204.61H107.795C107.767 204.209 107.604 203.887 107.305 203.644C107.016 203.401 106.624 203.28 106.129 203.28C105.672 203.28 105.308 203.378 105.037 203.574C104.766 203.77 104.631 204.027 104.631 204.344C104.631 204.596 104.71 204.806 104.869 204.974C105.037 205.133 105.242 205.263 105.485 205.366C105.737 205.459 106.082 205.567 106.521 205.688C107.072 205.837 107.52 205.987 107.865 206.136C108.21 206.276 108.504 206.491 108.747 206.78C108.999 207.069 109.13 207.447 109.139 207.914C109.139 208.334 109.022 208.712 108.789 209.048C108.556 209.384 108.224 209.65 107.795 209.846C107.375 210.033 106.89 210.126 106.339 210.126ZM112.491 203.378V207.9C112.491 208.273 112.571 208.539 112.729 208.698C112.888 208.847 113.163 208.922 113.555 208.922H114.493V210H113.345C112.636 210 112.104 209.837 111.749 209.51C111.395 209.183 111.217 208.647 111.217 207.9V203.378H110.223V202.328H111.217V200.396H112.491V202.328H114.493V203.378H112.491ZM118.753 210.126C118.165 210.126 117.638 210.028 117.171 209.832C116.704 209.627 116.336 209.347 116.065 208.992C115.794 208.628 115.645 208.213 115.617 207.746H116.933C116.97 208.129 117.148 208.441 117.465 208.684C117.792 208.927 118.216 209.048 118.739 209.048C119.224 209.048 119.607 208.941 119.887 208.726C120.167 208.511 120.307 208.241 120.307 207.914C120.307 207.578 120.158 207.331 119.859 207.172C119.56 207.004 119.098 206.841 118.473 206.682C117.904 206.533 117.437 206.383 117.073 206.234C116.718 206.075 116.41 205.847 116.149 205.548C115.897 205.24 115.771 204.839 115.771 204.344C115.771 203.952 115.888 203.593 116.121 203.266C116.354 202.939 116.686 202.683 117.115 202.496C117.544 202.3 118.034 202.202 118.585 202.202C119.434 202.202 120.12 202.417 120.643 202.846C121.166 203.275 121.446 203.863 121.483 204.61H120.209C120.181 204.209 120.018 203.887 119.719 203.644C119.43 203.401 119.038 203.28 118.543 203.28C118.086 203.28 117.722 203.378 117.451 203.574C117.18 203.77 117.045 204.027 117.045 204.344C117.045 204.596 117.124 204.806 117.283 204.974C117.451 205.133 117.656 205.263 117.899 205.366C118.151 205.459 118.496 205.567 118.935 205.688C119.486 205.837 119.934 205.987 120.279 206.136C120.624 206.276 120.918 206.491 121.161 206.78C121.413 207.069 121.544 207.447 121.553 207.914C121.553 208.334 121.436 208.712 121.203 209.048C120.97 209.384 120.638 209.65 120.209 209.846C119.789 210.033 119.304 210.126 118.753 210.126ZM123.757 210.084C123.515 210.084 123.309 210 123.141 209.832C122.973 209.664 122.889 209.459 122.889 209.216C122.889 208.973 122.973 208.768 123.141 208.6C123.309 208.432 123.515 208.348 123.757 208.348C123.991 208.348 124.187 208.432 124.345 208.6C124.513 208.768 124.597 208.973 124.597 209.216C124.597 209.459 124.513 209.664 124.345 209.832C124.187 210 123.991 210.084 123.757 210.084Z" fill="#343D48"/>
<g filter="url(#filter0_d_569_4273)">
<path fill-rule="evenodd" clip-rule="evenodd" d="M47.6685 16.9999C62.3696 16.9999 74.2872 28.8644 74.2872 43.4999C74.2872 58.1353 62.3696 69.9999 47.6685 69.9999C32.9672 69.9999 21.0496 58.1353 21.0496 43.4999C21.0496 28.8644 32.9672 16.9999 47.6685 16.9999Z" fill="url(#paint0_linear_569_4273)"/>
</g>
<path fill-rule="evenodd" clip-rule="evenodd" d="M42.1443 0.999936H52.1891C68.832 0.999936 82.3237 14.4311 82.3237 30.9999V40.9999C82.3237 57.5682 68.832 70.9998 52.1891 70.9998H42.1443C25.5015 70.9998 12.0098 57.5682 12.0098 40.9999V30.9999C12.0098 14.4311 25.5015 0.999936 42.1443 0.999936Z" fill="url(#paint1_linear_569_4273)"/>
<path fill-rule="evenodd" clip-rule="evenodd" d="M56.1549 31.0026C56.0628 30.7972 55.8647 30.6655 55.6464 30.6655H48.9947L55.5594 19.894C55.6688 19.7144 55.6755 19.487 55.5767 19.3015C55.478 19.1144 55.2893 18.9988 55.0849 18.9988H46.1038C45.8911 18.9988 45.6969 19.1236 45.6014 19.3214L37.1816 36.8214C37.0946 37.0021 37.1042 37.2166 37.2062 37.3886C37.309 37.5607 37.4892 37.665 37.684 37.665H43.4561L37.1665 53.1891C37.0592 53.4547 37.1546 53.7623 37.391 53.9133C37.4818 53.9703 37.5828 53.9988 37.6834 53.9988C37.8445 53.9988 38.0033 53.9268 38.1134 53.7918L56.0757 31.6252C56.2167 31.4515 56.2469 31.2085 56.1549 31.0026Z" fill="white"/>
<defs>
<filter id="filter0_d_569_4273" x="0.0495605" y="9" width="95.2378" height="95" filterUnits="userSpaceOnUse" color-interpolation-filters="sRGB">
<feFlood flood-opacity="0" result="BackgroundImageFix"/>
<feColorMatrix in="SourceAlpha" type="matrix" values="0 0 0 0 0 0 0 0 0 0 0 0 0 0 0 0 0 0 127 0" result="hardAlpha"/>
<feOffset dy="13"/>
<feGaussianBlur stdDeviation="10.5"/>
<feColorMatrix type="matrix" values="0 0 0 0 0.898039 0 0 0 0 0.117647 0 0 0 0 0.435294 0 0 0 0.3 0"/>
<feBlend mode="normal" in2="BackgroundImageFix" result="effect1_dropShadow_569_4273"/>
<feBlend mode="normal" in="SourceGraphic" in2="effect1_dropShadow_569_4273" result="shape"/>
</filter>
<linearGradient id="paint0_linear_569_4273" x1="75.2918" y1="16" x2="20.2923" y2="71.2461" gradientUnits="userSpaceOnUse">
<stop stop-color="#D665FF"/>
<stop offset="1" stop-color="#4C6FFF"/>
</linearGradient>
<linearGradient id="paint1_linear_569_4273" x1="83.3282" y1="0" x2="11.329" y2="72.3221" gradientUnits="userSpaceOnUse">
<stop stop-color="#D665FF"/>
<stop offset="1" stop-color="#4C6FFF"/>
</linearGradient>
</defs>
</svg>
