<svg width="72" height="72" viewBox="0 0 72 72" fill="none" xmlns="http://www.w3.org/2000/svg">
<path fill-rule="evenodd" clip-rule="evenodd" d="M31 0.999936H40.9999C57.5685 0.999936 70.9999 14.4311 70.9999 30.9999V40.9999C70.9999 57.5682 57.5685 70.9998 40.9999 70.9998H31C14.4315 70.9998 0.999936 57.5682 0.999936 40.9999V30.9999C0.999936 14.4311 14.4315 0.999936 31 0.999936Z" fill="white"/>
<path d="M28.09 49.3C26.49 49.3 25.11 48.86 23.95 47.98C22.81 47.1 21.93 45.86 21.31 44.26C20.69 42.64 20.38 40.72 20.38 38.5C20.38 36.28 20.69 34.37 21.31 32.77C21.93 31.15 22.81 29.9 23.95 29.02C25.11 28.14 26.49 27.7 28.09 27.7C29.69 27.7 31.07 28.14 32.23 29.02C33.39 29.9 34.28 31.15 34.9 32.77C35.52 34.37 35.83 36.28 35.83 38.5C35.83 40.72 35.52 42.64 34.9 44.26C34.28 45.86 33.39 47.1 32.23 47.98C31.07 48.86 29.69 49.3 28.09 49.3ZM28.09 46.36C29.55 46.36 30.68 45.68 31.48 44.32C32.28 42.94 32.68 41 32.68 38.5C32.68 36 32.28 34.07 31.48 32.71C30.68 31.33 29.55 30.64 28.09 30.64C26.63 30.64 25.5 31.33 24.7 32.71C23.9 34.07 23.5 36 23.5 38.5C23.5 41 23.9 42.94 24.7 44.32C25.5 45.68 26.63 46.36 28.09 46.36ZM47.7827 49V32.08L48.5327 32.26L41.6327 40.69L41.5127 40.33H54.5627V43.3H39.5027L38.1227 40.6L48.4127 28H50.9027V49H47.7827Z" fill="#244886"/>
</svg>
