<svg width="72" height="72" viewBox="0 0 72 72" fill="none" xmlns="http://www.w3.org/2000/svg">
<path opacity="0.102" d="M47.4146 0H24.5854C11.0072 0 0 11.0072 0 24.5854V47.4146C0 60.9928 11.0072 72 24.5854 72H47.4146C60.9928 72 72 60.9928 72 47.4146V24.5854C72 11.0072 60.9928 0 47.4146 0Z" fill="#FF4361"/>
<path d="M43.2262 45.1822C43.3432 44.3189 43.2455 43.4401 42.9417 42.6236C42.3378 41.6237 41.4722 40.8079 40.4384 40.2642C40.1249 40.0579 39.9247 39.9323 39.7192 39.8033C38.3697 38.9524 36.9517 38.0586 36.4406 36.8012C35.9305 38.0577 34.5089 38.9524 33.1637 39.8024C32.8933 39.9736 32.6272 40.1404 32.4429 40.2616C31.4071 40.8094 30.5426 41.6325 29.9448 42.6402C29.6443 43.4511 29.5454 44.3229 29.6568 45.1804L43.2262 45.1822ZM44.5143 41.8974C45.0113 43.2236 45.1418 44.6592 44.8919 46.0532C44.8914 46.2831 44.7997 46.5035 44.6368 46.6658C44.474 46.8281 44.2534 46.9192 44.0235 46.919H28.8552C28.6387 46.9189 28.4303 46.8377 28.2708 46.6914C28.1113 46.5451 28.0124 46.3443 27.9938 46.1287C27.7426 44.7185 27.8727 43.2669 28.3705 41.9238C28.8859 40.7963 29.8333 39.9095 31.4937 38.8181C31.7808 38.6293 32.0109 38.4836 32.2409 38.3396C33.5299 37.5265 34.9005 36.6616 34.9005 35.7932C34.9005 34.9248 33.5299 34.0626 32.2409 33.2469C32.0118 33.1029 31.7817 32.9571 31.4937 32.7683C29.7701 31.6357 28.8113 30.6689 28.3099 29.4563C27.846 28.0571 27.7359 26.5648 27.9894 25.1126C27.9922 24.8842 28.0848 24.6661 28.2471 24.5054C28.4094 24.3447 28.6285 24.2544 28.8569 24.2539H44.0208C44.2361 24.2538 44.4437 24.334 44.603 24.4789C44.7623 24.6237 44.8618 24.8228 44.8822 25.0371C45.1449 26.512 45.0372 28.029 44.5687 29.4519C44.0682 30.6636 43.1085 31.6313 41.3849 32.7639C41.0925 32.9562 40.8669 33.0985 40.6368 33.2433C39.3487 34.0555 37.9772 34.9204 37.9772 35.7897C37.9772 36.659 39.3496 37.5203 40.6385 38.336C40.9327 38.5213 41.2268 38.7074 41.384 38.8111C43.0462 39.9034 43.9971 40.7717 44.5134 41.8912L44.5143 41.8974ZM36.4363 34.7852C36.9464 33.5287 38.3679 32.6349 39.714 31.784C39.9835 31.6137 40.254 31.4442 40.434 31.3257C41.5119 30.7565 42.394 29.8767 42.9663 28.8004C43.2654 27.8958 43.3534 26.9346 43.2236 25.9907H29.6524C29.5224 26.9347 29.6108 27.8959 29.9106 28.8004C30.4827 29.8765 31.3645 30.7562 32.442 31.3257C32.6264 31.446 32.8924 31.6146 33.1629 31.784C34.5115 32.634 35.9296 33.5287 36.4397 34.7852H36.4363Z" fill="#333333"/>
<path d="M27.0207 21.0742H45.8548C46.1739 21.0746 46.4898 21.1379 46.7843 21.2606C47.0789 21.3832 47.3463 21.5628 47.5714 21.7889C47.7976 22.0149 47.977 22.2831 48.0995 22.5784C48.222 22.8737 48.2851 23.1902 48.2853 23.5099C48.2847 23.8295 48.2211 24.1459 48.0982 24.4409C47.9752 24.7359 47.7953 25.0037 47.5687 25.2291C47.3431 25.4559 47.075 25.6358 46.7796 25.7586C46.4843 25.8814 46.1676 25.9447 45.8478 25.9448H27.0207C26.701 25.9446 26.3845 25.8812 26.0893 25.7584C25.7941 25.6356 25.5261 25.4558 25.3006 25.2291C25.0742 25.0037 24.8944 24.7357 24.7716 24.4408C24.6488 24.1458 24.5854 23.8294 24.585 23.5099C24.5853 23.1908 24.6485 22.8748 24.771 22.5801C24.8935 22.2855 25.0728 22.0178 25.2988 21.7925C25.5238 21.5662 25.7913 21.3866 26.0859 21.264C26.3804 21.1413 26.6963 21.078 27.0154 21.0777L27.0207 21.0742ZM45.8583 22.811H27.0207C26.8359 22.8111 26.6586 22.8839 26.5272 23.0138C26.3975 23.145 26.3246 23.3219 26.3243 23.5064C26.3241 23.5978 26.3419 23.6884 26.3768 23.7729C26.4116 23.8574 26.4627 23.9342 26.5272 23.999C26.6582 24.1298 26.8355 24.2037 27.0207 24.2045H45.8548C45.9464 24.2043 46.0371 24.1861 46.1216 24.1508C46.2061 24.1156 46.2828 24.064 46.3474 23.999C46.4119 23.9342 46.4631 23.8574 46.4979 23.7729C46.5327 23.6884 46.5504 23.5978 46.5502 23.5064C46.5499 23.4148 46.5315 23.3241 46.4961 23.2396C46.4607 23.155 46.409 23.0783 46.3439 23.0138C46.2126 22.8831 46.0348 22.8095 45.8495 22.8092L45.8583 22.811Z" fill="#333333"/>
<path d="M27.0208 45.1816H45.855C46.1748 45.1818 46.4914 45.2449 46.7867 45.3676C47.082 45.4902 47.3502 45.6699 47.5759 45.8964C47.8024 46.1217 47.9823 46.3894 48.1052 46.6842C48.2282 46.9791 48.2918 47.2953 48.2925 47.6147C48.2911 48.2601 48.0341 48.8787 47.5778 49.3352C47.1215 49.7916 46.503 50.0488 45.8576 50.0504H27.0208C26.7011 50.0502 26.3846 49.9869 26.0895 49.8641C25.7943 49.7413 25.5263 49.5614 25.3008 49.3348C25.0748 49.1095 24.8954 48.8418 24.7729 48.5471C24.6504 48.2524 24.5872 47.9365 24.5869 47.6173C24.5875 47.298 24.6509 46.9818 24.7737 46.687C24.8965 46.3921 25.0762 46.1244 25.3025 45.899C25.5282 45.6726 25.7962 45.493 26.0914 45.3704C26.3866 45.2477 26.703 45.1845 27.0226 45.1843L27.0208 45.1816ZM45.8585 46.9184H27.0208C26.8356 46.9194 26.6582 46.9936 26.5274 47.1247C26.4628 47.1893 26.4116 47.266 26.3768 47.3503C26.342 47.4347 26.3242 47.5252 26.3245 47.6165C26.3246 47.8021 26.3982 47.9801 26.5291 48.1117C26.6601 48.2425 26.8375 48.3164 27.0226 48.3171H45.855C45.9472 48.3171 46.0386 48.299 46.1238 48.2637C46.209 48.2284 46.2865 48.1766 46.3517 48.1114C46.4169 48.0462 46.4686 47.9688 46.5039 47.8835C46.5392 47.7983 46.5574 47.707 46.5574 47.6147C46.5577 47.5234 46.54 47.433 46.5052 47.3486C46.4704 47.2642 46.4192 47.1875 46.3546 47.123C46.2901 47.0579 46.2134 47.0061 46.1289 46.9707C46.0443 46.9353 45.9537 46.9169 45.862 46.9166L45.8585 46.9184Z" fill="#333333"/>
<path d="M27.0212 50.0484C26.7014 50.0482 26.3849 49.9849 26.0896 49.8623C25.7943 49.7397 25.526 49.5601 25.3002 49.3337C25.0741 49.1084 24.8947 48.8408 24.7722 48.5461C24.6497 48.2514 24.5866 47.9353 24.5864 47.6162C24.5867 47.2966 24.6501 46.9802 24.7729 46.6852C24.8957 46.3901 25.0755 46.1223 25.302 45.8969C25.5279 45.6706 25.7961 45.4909 26.0914 45.3683C26.3867 45.2457 26.7032 45.1825 27.023 45.1822H27.9221C27.798 44.0755 27.9516 42.9554 28.369 41.923C28.8844 40.7965 29.8318 39.9087 31.4922 38.8172C31.7794 38.6285 32.0094 38.4828 32.2386 38.3396C33.5276 37.5266 34.8982 36.6607 34.8982 35.7932C34.8982 34.9256 33.5267 34.0626 32.2386 33.2469C32.0085 33.1029 31.7785 32.9581 31.4922 32.7693C29.7686 31.6366 28.8098 30.6699 28.3084 29.4573C27.9055 28.3332 27.7723 27.1302 27.9195 25.9451H27.0195C26.6997 25.9452 26.383 25.8819 26.0877 25.7593C25.7924 25.6366 25.5242 25.457 25.2985 25.2304C25.0719 25.0052 24.8921 24.7374 24.7694 24.4424C24.6467 24.1474 24.5835 23.8311 24.5835 23.5116C24.5835 23.1921 24.6467 22.8758 24.7694 22.5808C24.8921 22.2859 25.0719 22.018 25.2985 21.7928C25.5235 21.5664 25.7911 21.3866 26.0859 21.264C26.3806 21.1413 26.6967 21.0782 27.0159 21.0781H45.8527C46.172 21.0783 46.488 21.1415 46.7827 21.2642C47.0775 21.3868 47.3451 21.5665 47.5702 21.7928C47.7969 22.0183 47.9767 22.2863 48.0995 22.5815C48.2222 22.8767 48.2854 23.1932 48.2854 23.5129C48.2854 23.8326 48.2222 24.1491 48.0995 24.4443C47.9767 24.7395 47.7969 25.0075 47.5702 25.233C47.3445 25.4596 47.0763 25.6394 46.781 25.7621C46.4856 25.8847 46.169 25.9477 45.8492 25.9477H44.9562C45.1037 27.1327 44.9708 28.3357 44.5681 29.4599C44.0668 30.6725 43.1079 31.6392 41.3843 32.7719C41.0928 32.965 40.8663 33.1063 40.6371 33.2503C39.349 34.0625 37.9775 34.9284 37.9775 35.7968C37.9775 36.6652 39.3499 37.5274 40.6397 38.3431C40.933 38.5274 41.228 38.7145 41.3852 38.8181C43.0474 39.9113 43.9983 40.7797 44.5146 41.8983C44.9359 42.9383 45.0869 44.0681 44.9536 45.1822H45.8536C46.4993 45.1828 47.1184 45.4399 47.5746 45.8969C47.8012 46.1223 47.9812 46.3902 48.1041 46.6852C48.227 46.9802 48.2906 47.2966 48.2911 47.6162C48.2899 48.2618 48.0329 48.8806 47.5764 49.3371C47.1198 49.7936 46.501 50.0506 45.8554 50.0518L27.0212 50.0484ZM27.0212 48.3107H45.858C46.0435 48.3107 46.2215 48.2374 46.3531 48.1066C46.4848 47.9759 46.5593 47.7983 46.5604 47.6127C46.5608 47.5214 46.5431 47.4308 46.5085 47.3463C46.4738 47.2618 46.4228 47.1849 46.3585 47.1201C46.2939 47.0549 46.217 47.0031 46.1323 46.9677C46.0476 46.9323 45.9568 46.9139 45.865 46.9137H27.0212C26.8359 46.9147 26.6586 46.989 26.5278 47.1201C26.4631 47.1848 26.4119 47.2615 26.3771 47.3461C26.3423 47.4306 26.3245 47.5213 26.3249 47.6127C26.3252 47.798 26.3988 47.9757 26.5295 48.1071C26.66 48.2373 26.8368 48.3105 27.0212 48.3107ZM33.1632 39.798C32.8927 39.9683 32.6267 40.1362 32.4423 40.2574C31.4064 40.8054 30.542 41.6288 29.9442 42.6368C29.6434 43.4476 29.5445 44.3193 29.6562 45.1769H43.2265C43.3437 44.3135 43.2456 43.4347 42.9411 42.6184C42.3376 41.6183 41.4719 40.8023 40.4378 40.2591C40.1243 40.0527 39.9241 39.9271 39.7195 39.7971C38.3691 38.9463 36.9511 38.0525 36.4409 36.7951C35.929 38.0534 34.5075 38.948 33.1632 39.798ZM29.9144 28.7988C30.4871 29.8748 31.3691 30.7544 32.4467 31.324C32.6311 31.4443 32.8971 31.6129 33.1675 31.7823C34.5162 32.6332 35.9343 33.527 36.4436 34.7835C36.9537 33.527 38.3753 32.6332 39.7204 31.7823C39.99 31.6129 40.2604 31.4426 40.4404 31.324C41.5183 30.7547 42.4004 29.875 42.9727 28.7988C43.2714 27.894 43.3594 26.933 43.23 25.9891H29.6527C29.5228 26.9333 29.6108 27.8947 29.91 28.7996L29.9144 28.7988ZM26.5313 23.0115C26.4018 23.1429 26.3292 23.32 26.3292 23.5045C26.3292 23.6891 26.4018 23.8662 26.5313 23.9976C26.6625 24.1286 26.8402 24.2024 27.0256 24.203H45.8624C45.9541 24.2029 46.0449 24.1848 46.1296 24.1496C46.2143 24.1143 46.2912 24.0627 46.3559 23.9976C46.4206 23.9329 46.472 23.856 46.507 23.7714C46.5421 23.6868 46.5601 23.5961 46.5601 23.5045C46.5601 23.413 46.5421 23.3223 46.507 23.2377C46.472 23.1531 46.4206 23.0762 46.3559 23.0115C46.2245 22.8808 46.0468 22.8073 45.8615 22.807H27.0212C26.8359 22.8073 26.6582 22.8808 26.5269 23.0115H26.5313Z" fill="#F55767"/>
</svg>
