<svg width="119" height="24" viewBox="0 0 119 24" fill="none" xmlns="http://www.w3.org/2000/svg">
<path d="M33.2328 13.2386V19.5455H30.2073V8.63636H33.0908V10.5611H33.2186C33.4601 9.92661 33.8649 9.42472 34.4331 9.0554C35.0013 8.68134 35.6902 8.49432 36.4999 8.49432C37.2575 8.49432 37.918 8.66004 38.4814 8.99148C39.0449 9.32292 39.4828 9.7964 39.7953 10.4119C40.1078 11.0227 40.2641 11.7519 40.2641 12.5994V19.5455H37.2385V13.1392C37.2433 12.4716 37.0728 11.9508 36.7272 11.5767C36.3815 11.1979 35.9057 11.0085 35.2996 11.0085C34.8924 11.0085 34.5326 11.0961 34.2201 11.2713C33.9123 11.4465 33.6708 11.7022 33.4956 12.0384C33.3252 12.3698 33.2376 12.7699 33.2328 13.2386ZM47.6203 19.7585C46.4981 19.7585 45.5322 19.5312 44.7225 19.0767C43.9176 18.6174 43.2974 17.9688 42.8617 17.1307C42.4261 16.2879 42.2083 15.2912 42.2083 14.1406C42.2083 13.0185 42.4261 12.0336 42.8617 11.1861C43.2974 10.3385 43.9105 9.67803 44.7012 9.20455C45.4967 8.73106 46.4295 8.49432 47.4995 8.49432C48.2192 8.49432 48.8892 8.61032 49.5095 8.84233C50.1345 9.0696 50.679 9.41288 51.143 9.87216C51.6117 10.3314 51.9763 10.9091 52.2367 11.6051C52.4972 12.2964 52.6274 13.1061 52.6274 14.0341V14.8651H43.4157V12.9901H49.7794C49.7794 12.5545 49.6847 12.1686 49.4953 11.8324C49.3059 11.4962 49.0431 11.2334 48.7069 11.044C48.3755 10.8499 47.9896 10.7528 47.5492 10.7528C47.09 10.7528 46.6828 10.8594 46.3277 11.0724C45.9773 11.2808 45.7027 11.5625 45.5038 11.9176C45.3049 12.268 45.2031 12.6586 45.1984 13.0895V14.8722C45.1984 15.4119 45.2978 15.8783 45.4967 16.2713C45.7003 16.6643 45.9867 16.9673 46.3561 17.1804C46.7254 17.3935 47.1634 17.5 47.67 17.5C48.0062 17.5 48.3139 17.4527 48.5933 17.358C48.8726 17.2633 49.1117 17.1212 49.3106 16.9318C49.5095 16.7424 49.661 16.5104 49.7652 16.2358L52.5635 16.4205C52.4214 17.0928 52.1302 17.6799 51.6899 18.1818C51.2543 18.679 50.6908 19.0672 49.9995 19.3466C49.313 19.6212 48.5199 19.7585 47.6203 19.7585ZM61.3827 19.5455L58.414 8.63636H61.475L63.1654 15.9659H63.2648L65.0262 8.63636H68.0304L69.8202 15.9233H69.9125L71.5745 8.63636H74.6284L71.6668 19.5455H68.4637L66.5887 12.6847H66.4537L64.5787 19.5455H61.3827ZM79.9889 19.723C79.1603 19.723 78.4098 19.5099 77.7375 19.0838C77.0698 18.6529 76.5395 18.0208 76.1465 17.1875C75.7583 16.3494 75.5642 15.322 75.5642 14.1051C75.5642 12.8551 75.7654 11.8158 76.1679 10.9872C76.5703 10.1539 77.1054 9.53125 77.773 9.11932C78.4453 8.70265 79.1816 8.49432 79.9818 8.49432C80.5926 8.49432 81.1016 8.59849 81.5088 8.80682C81.9207 9.01042 82.2521 9.2661 82.5031 9.57386C82.7588 9.87689 82.9529 10.1752 83.0855 10.4688H83.1778V8.63636H86.1963V19.5455H83.2133V17.7983H83.0855C82.9434 18.1013 82.7422 18.402 82.4818 18.7003C82.2261 18.9938 81.8923 19.2377 81.4804 19.4318C81.0732 19.6259 80.576 19.723 79.9889 19.723ZM80.9477 17.3153C81.4354 17.3153 81.8473 17.1828 82.1835 16.9176C82.5244 16.6477 82.7848 16.2713 82.9647 15.7884C83.1494 15.3054 83.2417 14.7396 83.2417 14.0909C83.2417 13.4422 83.1518 12.8788 82.9718 12.4006C82.7919 11.9223 82.5315 11.553 82.1906 11.2926C81.8497 11.0322 81.4354 10.902 80.9477 10.902C80.4505 10.902 80.0315 11.0369 79.6906 11.3068C79.3497 11.5767 79.0916 11.9508 78.9164 12.429C78.7412 12.9072 78.6537 13.4612 78.6537 14.0909C78.6537 14.7254 78.7412 15.2865 78.9164 15.7741C79.0964 16.2571 79.3544 16.6359 79.6906 16.9105C80.0315 17.1804 80.4505 17.3153 80.9477 17.3153ZM88.6838 5H91.7094V16.2784C91.7141 16.6241 91.7757 16.875 91.8941 17.0312C92.0172 17.1828 92.2255 17.2585 92.5191 17.2585C92.6706 17.2538 92.789 17.2443 92.8742 17.2301C92.9594 17.2159 93.0304 17.197 93.0872 17.1733L93.5702 19.375C93.414 19.4223 93.2222 19.4721 92.9949 19.5241C92.7724 19.5715 92.4717 19.6023 92.0929 19.6165C90.9329 19.6591 90.0759 19.4413 89.5219 18.9631C88.9679 18.4801 88.6886 17.7202 88.6838 16.6832V5ZM94.9924 5H98.018V16.2784C98.0227 16.6241 98.0843 16.875 98.2027 17.0312C98.3258 17.1828 98.5341 17.2585 98.8277 17.2585C98.9792 17.2538 99.0975 17.2443 99.1828 17.2301C99.268 17.2159 99.339 17.197 99.3958 17.1733L99.8788 19.375C99.7225 19.4223 99.5308 19.4721 99.3035 19.5241C99.081 19.5715 98.7803 19.6023 98.4015 19.6165C97.2415 19.6591 96.3845 19.4413 95.8305 18.9631C95.2765 18.4801 94.9972 17.7202 94.9924 16.6832V5ZM105.98 19.7585C104.857 19.7585 103.892 19.5312 103.082 19.0767C102.277 18.6174 101.657 17.9688 101.221 17.1307C100.786 16.2879 100.568 15.2912 100.568 14.1406C100.568 13.0185 100.786 12.0336 101.221 11.1861C101.657 10.3385 102.27 9.67803 103.061 9.20455C103.856 8.73106 104.789 8.49432 105.859 8.49432C106.579 8.49432 107.249 8.61032 107.869 8.84233C108.494 9.0696 109.038 9.41288 109.502 9.87216C109.971 10.3314 110.336 10.9091 110.596 11.6051C110.857 12.2964 110.987 13.1061 110.987 14.0341V14.8651H101.775V12.9901H108.139C108.139 12.5545 108.044 12.1686 107.855 11.8324C107.665 11.4962 107.402 11.2334 107.066 11.044C106.735 10.8499 106.349 10.7528 105.909 10.7528C105.449 10.7528 105.042 10.8594 104.687 11.0724C104.337 11.2808 104.062 11.5625 103.863 11.9176C103.664 12.268 103.563 12.6586 103.558 13.0895V14.8722C103.558 15.4119 103.657 15.8783 103.856 16.2713C104.06 16.6643 104.346 16.9673 104.715 17.1804C105.085 17.3935 105.523 17.5 106.029 17.5C106.366 17.5 106.673 17.4527 106.953 17.358C107.232 17.2633 107.471 17.1212 107.67 16.9318C107.869 16.7424 108.02 16.5104 108.125 16.2358L110.923 16.4205C110.781 17.0928 110.49 17.6799 110.049 18.1818C109.614 18.679 109.05 19.0672 108.359 19.3466C107.672 19.6212 106.879 19.7585 105.98 19.7585ZM118.764 8.63636V10.9091H112.194V8.63636H118.764ZM113.686 6.02273H116.711V16.1932C116.711 16.4725 116.754 16.6903 116.839 16.8466C116.924 16.9981 117.043 17.1046 117.194 17.1662C117.35 17.2277 117.53 17.2585 117.734 17.2585C117.876 17.2585 118.018 17.2467 118.16 17.223C118.302 17.1946 118.411 17.1733 118.487 17.1591L118.963 19.4105C118.811 19.4579 118.598 19.5123 118.323 19.5739C118.049 19.6402 117.715 19.6804 117.322 19.6946C116.593 19.723 115.954 19.6259 115.404 19.4034C114.86 19.1809 114.436 18.8352 114.133 18.3665C113.83 17.8977 113.681 17.3059 113.686 16.5909V6.02273Z" fill="white"/>
<path d="M24.0002 11.9996C24.0001 15.1821 22.7358 18.2343 20.4854 20.4848C18.2349 22.7352 15.1828 23.9995 12.0002 23.9996C11.836 23.9996 11.675 23.9965 11.5109 23.9903C10.6343 23.9545 9.76416 23.8236 8.91577 23.6001C9.0799 23.5165 9.24093 23.4329 9.40197 23.343C9.40506 23.343 9.40816 23.34 9.41435 23.3369L9.41745 23.3338C9.58777 23.2409 9.755 23.1479 9.91913 23.052C9.95938 23.0272 9.99964 23.0055 10.0399 22.9838C10.1947 22.8909 10.3496 22.798 10.5013 22.6989C10.5462 22.6746 10.5896 22.6477 10.6314 22.6184C10.7491 22.5472 10.8667 22.4698 10.9813 22.3923C11.0618 22.3397 11.1455 22.2839 11.2229 22.2313C11.3405 22.1508 11.4551 22.0703 11.5697 21.9867C11.6471 21.934 11.7184 21.8814 11.7927 21.8225C11.8918 21.7544 11.9878 21.6801 12.0838 21.6058C12.1705 21.5438 12.2541 21.4788 12.3377 21.4107C12.4554 21.3209 12.57 21.2279 12.6845 21.1289C12.7341 21.0917 12.7836 21.0514 12.8332 21.0081C12.9571 20.9059 13.0778 20.8006 13.1986 20.6922C13.2636 20.6365 13.3287 20.5807 13.3937 20.5188C13.4649 20.4569 13.5331 20.3949 13.6012 20.3299C13.7313 20.2122 13.8582 20.0883 13.9852 19.9645C14.0022 19.9506 14.0178 19.935 14.0316 19.918C14.1555 19.8003 14.2763 19.6765 14.394 19.5526C14.4776 19.4721 14.555 19.3885 14.6293 19.3048C14.7191 19.215 14.8027 19.1221 14.8864 19.0292C14.9359 18.9766 14.9824 18.9239 15.0257 18.8713C15.1372 18.7474 15.2456 18.6205 15.354 18.4935C15.4097 18.4285 15.4655 18.3603 15.5181 18.2922C15.5986 18.1993 15.676 18.1064 15.7473 18.0104C15.8216 17.9206 15.8928 17.8277 15.9609 17.7348C16.026 17.6543 16.0879 17.5707 16.1467 17.4901C16.2273 17.3848 16.3047 17.2796 16.379 17.1712C16.4533 17.0628 16.5338 16.9544 16.6082 16.8429C16.645 16.7943 16.6792 16.7436 16.7104 16.6912C16.8156 16.5363 16.9178 16.3784 17.0169 16.2205C17.1439 16.0254 17.2647 15.8272 17.3793 15.6259C17.4319 15.5392 17.4815 15.4525 17.531 15.3657C17.9326 14.6575 18.2905 13.9253 18.6025 13.1732C18.6489 13.0679 18.6923 12.9627 18.7326 12.8543C18.7821 12.7397 18.8255 12.622 18.8688 12.5043C18.906 12.4083 18.9431 12.3092 18.9772 12.2101C19.0175 12.1017 19.0546 11.9903 19.0918 11.8819C19.228 11.4855 19.3519 11.086 19.4603 10.6803C19.4882 10.5781 19.516 10.479 19.5408 10.3768C19.5594 10.3118 19.5749 10.2499 19.5904 10.1848L19.6647 9.86897C19.7638 9.43852 19.8474 9.00497 19.9186 8.56523L19.9651 8.26794C19.9713 8.22149 19.9775 8.17813 19.9837 8.13168C20.0022 8.014 20.0177 7.89632 20.0301 7.77865C20.0518 7.60213 20.0735 7.42561 20.0889 7.2491C20.0951 7.20265 20.0982 7.15619 20.1013 7.10974C20.1137 6.98897 20.123 6.8651 20.1323 6.74432C20.1416 6.62355 20.1478 6.49658 20.154 6.37271C20.1602 6.286 20.1633 6.19929 20.1664 6.10948C20.1788 5.82458 20.1849 5.53968 20.1849 5.25477C20.1849 5.10922 20.1849 4.96677 20.1788 4.82432C20.1788 4.75 20.1788 4.67877 20.1757 4.60445C20.1664 4.34742 20.154 4.09348 20.1354 3.83955V3.83026C20.1323 3.76832 20.1292 3.70638 20.123 3.64445C20.1106 3.47413 20.0951 3.3069 20.0797 3.13658C20.0797 3.13125 20.0787 3.12596 20.0766 3.12109C20.4938 3.5011 20.8839 3.90984 21.244 4.34432L21.2533 4.35361C21.255 4.35528 21.2561 4.35745 21.2564 4.3598C23.0342 6.50838 24.0048 9.21087 24.0002 11.9996Z" fill="url(#paint0_linear_569_4240)"/>
<path d="M20.1851 5.25523C20.1868 8.95947 19.187 12.5953 17.2915 15.7778C15.3961 18.9604 12.6754 21.5713 9.41763 23.3342C9.41361 23.3389 9.40816 23.3422 9.40212 23.3435L9.39905 23.3466C9.23802 23.4333 9.07699 23.5169 8.91596 23.6005C7.90532 23.3342 6.9347 22.9343 6.02976 22.4114C5.3751 22.0343 4.75717 21.5968 4.18408 21.1045C4.29247 20.99 4.39776 20.8754 4.50305 20.7577L4.50612 20.7546C4.50612 20.7515 4.50924 20.7484 4.51234 20.7453H4.51541C7.90412 16.9791 9.7755 12.0898 9.76757 7.02349C9.76807 4.84107 9.42315 2.67229 8.7456 0.597687H8.74254C8.74254 0.591494 8.73944 0.5853 8.73944 0.579107H8.73631C8.73455 0.574124 8.7335 0.568903 8.73325 0.563617C8.67131 0.374713 8.60628 0.185818 8.53815 1.14876e-05H12.0003C14.9877 -0.00412568 17.8686 1.10935 20.0767 3.12155C20.1015 3.35691 20.1201 3.59226 20.1355 3.83071C20.1696 4.30142 20.1851 4.77523 20.1851 5.25523Z" fill="url(#paint1_linear_569_4240)"/>
<path d="M9.76748 7.02349C9.76748 7.23097 9.76438 7.43846 9.75819 7.64285C9.75509 7.77601 9.7489 7.90607 9.7427 8.03923C9.71793 8.57188 9.67148 9.10143 9.60335 9.62788C9.58787 9.76414 9.56928 9.8973 9.54761 10.0305C9.52593 10.1946 9.49806 10.3556 9.47019 10.5198C9.44541 10.6746 9.41754 10.8263 9.38657 10.9812C9.38038 11.0183 9.37109 11.0555 9.3649 11.0927C9.34012 11.2196 9.31225 11.3497 9.28438 11.4767C9.13893 12.1366 8.96012 12.7888 8.74864 13.4307C8.70838 13.5577 8.66503 13.6816 8.62167 13.8023C8.61789 13.8172 8.61272 13.8318 8.60619 13.8457C8.56283 13.9727 8.51948 14.0934 8.47303 14.2173C8.46064 14.2545 8.44515 14.2947 8.42967 14.335C8.38012 14.4681 8.32748 14.5982 8.27483 14.7283C8.21599 14.8769 8.15406 15.0256 8.08903 15.1711C8.02399 15.3229 7.95586 15.4746 7.88773 15.6263C7.8227 15.7657 7.75457 15.905 7.68954 16.0413C7.61832 16.1869 7.54709 16.3293 7.47277 16.4687C7.39844 16.608 7.32412 16.7505 7.2467 16.8898C7.16928 17.0292 7.09186 17.1685 7.01444 17.3048C6.93702 17.441 6.85341 17.5804 6.7698 17.7167C6.68619 17.8529 6.60257 17.9861 6.51586 18.1192C6.34554 18.3856 6.16902 18.6488 5.98631 18.9058C5.8036 19.1629 5.6116 19.4168 5.4196 19.6676C5.12851 20.0361 4.8271 20.3954 4.51534 20.7453H4.51225C4.50915 20.7484 4.50915 20.7484 4.50915 20.7515C4.50915 20.7523 4.50884 20.7531 4.50825 20.7537C4.50767 20.7543 4.50689 20.7546 4.50605 20.7546C4.40076 20.8723 4.29238 20.99 4.18399 21.1045C3.69606 20.6852 3.24248 20.2275 2.82761 19.7358C2.82446 19.7299 2.82026 19.7246 2.81522 19.7203C0.99404 17.5604 -0.00324853 14.8252 0.000253332 12V0H8.53806C8.60619 0.185807 8.67122 0.371613 8.73006 0.560517L8.73316 0.563607C8.73343 0.56889 8.73449 0.574115 8.73625 0.579097H8.73935V0.588385C8.73916 0.590066 8.73932 0.591769 8.73984 0.593377C8.7404 0.594981 8.7413 0.596452 8.74244 0.597675H8.74554C8.7483 0.609486 8.75245 0.620919 8.75793 0.631736L8.79509 0.752514C8.90038 1.08077 8.99638 1.41213 9.08309 1.74968C9.14503 1.97574 9.20077 2.20799 9.25341 2.44025C9.34941 2.86141 9.43303 3.29187 9.50425 3.72852C9.51974 3.83381 9.53832 3.936 9.5507 4.04129C9.58787 4.29833 9.62193 4.55536 9.6498 4.81549C9.66219 4.91149 9.67148 5.01058 9.67767 5.10659C9.69625 5.2862 9.70864 5.46891 9.72103 5.64852C9.75199 6.10375 9.76748 6.56207 9.76748 7.02349Z" fill="url(#paint2_linear_569_4240)"/>
<g style="mix-blend-mode:multiply" opacity="0.15">
<path d="M6.02976 22.4114C5.3751 22.0343 4.75717 21.5968 4.18408 21.1045C6.78869 18.3324 8.57435 14.8928 9.34291 11.1674C10.1115 7.44208 9.83294 3.57665 8.53815 0C8.53815 0 13.9327 8.42014 6.02976 22.4114Z" fill="#0B0B0B"/>
</g>
<g style="mix-blend-mode:multiply" opacity="0.15">
<path d="M11.5109 23.9903C10.6343 23.9545 9.76416 23.8236 8.91577 23.6001C12.3061 21.8824 15.154 19.2586 17.1433 16.0202C19.1326 12.7818 20.1854 9.05539 20.1849 5.25477C20.1848 4.54217 20.1486 3.83004 20.0766 3.12109C20.0766 3.12109 23.2929 14.7836 11.5109 23.9903Z" fill="#0B0B0B"/>
</g>
<g style="mix-blend-mode:multiply" opacity="0.25">
<path d="M20.2842 6.70695C20.2656 6.96089 20.247 7.22724 20.2284 7.50595C20.2037 7.78157 20.2037 8.07882 20.151 8.37302C20.1077 8.67031 20.0612 8.98002 20.0148 9.29589C19.9776 9.61486 19.8878 9.9307 19.8197 10.259C19.7547 10.5968 19.6709 10.9307 19.5688 11.2592C19.4666 11.5937 19.3644 11.9312 19.2591 12.2781C19.1353 12.6156 19.0021 12.9532 18.8658 13.2969C18.7419 13.6437 18.5686 13.972 18.4137 14.3096L18.1753 14.8143C18.0917 14.9816 17.9957 15.1426 17.9058 15.3067C17.7169 15.6257 17.5497 15.9632 17.3391 16.2698C17.1348 16.5795 16.9304 16.8892 16.726 17.1958C16.3057 17.7785 15.8549 18.3388 15.3758 18.8742C14.9294 19.3755 14.4581 19.854 13.9637 20.308C13.719 20.5155 13.4806 20.7168 13.2514 20.9119C13.1368 21.0079 13.0222 21.1008 12.9107 21.1937C12.7962 21.2804 12.6785 21.364 12.567 21.4445C12.3409 21.6087 12.1273 21.7635 11.9198 21.9122C11.7123 22.0608 11.5017 22.1754 11.3128 22.2993C10.9257 22.5315 10.5975 22.7452 10.3033 22.8876C9.76752 23.1663 9.44236 23.3243 9.4021 23.3428C9.40814 23.3415 9.41356 23.3383 9.41758 23.3335C12.6754 21.5706 15.396 18.9597 17.2914 15.7772C19.1869 12.5946 20.1867 8.95881 20.1851 5.25456C20.1851 4.77456 20.1696 4.30079 20.1355 3.83008C20.1448 3.9075 20.182 4.26053 20.2315 4.82414C20.2408 4.98827 20.2656 5.15547 20.2656 5.36295C20.2687 5.55495 20.2718 5.76553 20.2749 5.9916C20.278 6.21766 20.2811 6.45426 20.2842 6.70695Z" fill="#0B0B0B"/>
</g>
<g style="mix-blend-mode:multiply" opacity="0.25">
<path d="M4.5123 20.7461H4.51553C4.5123 20.7525 4.50908 20.7525 4.50586 20.7558C4.50586 20.7525 4.50908 20.7493 4.5123 20.7461Z" fill="#0B0B0B"/>
</g>
<g style="mix-blend-mode:multiply" opacity="0.25">
<path d="M8.73837 0.579943C8.73995 0.586288 8.74203 0.592501 8.74456 0.598521H8.74147C8.73837 0.592327 8.73837 0.586137 8.73527 0.579943C8.73348 0.57496 8.73246 0.569736 8.73218 0.564453C8.73456 0.569479 8.73664 0.574654 8.73837 0.579943Z" fill="#0B0B0B"/>
</g>
<g style="mix-blend-mode:multiply" opacity="0.25">
<path d="M10.0336 7.29402C10.039 7.95484 10.008 8.61545 9.94069 9.27286C9.87337 9.95075 9.77105 10.6247 9.63411 11.292C9.56288 11.6295 9.48856 11.964 9.39566 12.2922L9.2625 12.7846C9.20985 12.9456 9.1603 13.1067 9.10766 13.2677C9.05501 13.4287 9.00546 13.5898 8.95282 13.7477C8.89398 13.9025 8.83514 14.0605 8.7763 14.2122C8.66172 14.525 8.53166 14.8223 8.40159 15.1165C8.27772 15.4138 8.13837 15.6956 7.99901 15.9712C7.85966 16.2468 7.71411 16.5131 7.56856 16.7671C7.4292 17.0241 7.28366 17.2687 7.13191 17.501C6.98327 17.7333 6.84082 17.9593 6.69217 18.1668C6.54353 18.3743 6.40727 18.5787 6.26482 18.7614C6.12236 18.9441 5.98301 19.1175 5.85294 19.2785C5.58972 19.6006 5.34507 19.8669 5.15307 20.093C4.79385 20.4677 4.56469 20.6938 4.51514 20.7433C7.90382 16.9771 9.7752 12.0878 9.76727 7.02151C9.7678 4.83908 9.42288 2.67031 8.74534 0.595703C8.76082 0.632864 8.78559 0.697897 8.82275 0.7908C8.88159 0.936349 8.9683 1.15312 9.06121 1.43493C9.32716 2.21324 9.53926 3.00893 9.69605 3.81634C9.80381 4.35701 9.88442 4.90272 9.93759 5.45144C10.005 6.06327 10.0371 6.67851 10.0336 7.29402Z" fill="#0B0B0B"/>
</g>
<g style="mix-blend-mode:screen" opacity="0.4">
<path d="M20.1849 5.2546C20.1866 8.95884 19.1868 12.5946 17.2913 15.7772C15.3959 18.9597 12.6753 21.5706 9.41748 23.3336C9.48871 23.284 9.7798 23.0858 10.2412 22.7824C10.5168 22.6182 10.8234 22.3736 11.1795 22.1073C11.545 21.8502 11.9258 21.5189 12.3439 21.1689C12.4492 21.0791 12.5576 20.9893 12.666 20.8995C12.7682 20.8004 12.8735 20.7013 12.9788 20.5991C13.1955 20.3978 13.4154 20.1873 13.6446 19.9736C14.0657 19.5122 14.5364 19.0507 14.9607 18.515C15.4159 18.0071 15.8092 17.4249 16.2366 16.852C16.4316 16.5516 16.6268 16.2512 16.8219 15.9478C17.0232 15.6474 17.1811 15.3191 17.3638 15.0063C17.4536 14.8484 17.5496 14.6936 17.6301 14.5325L17.8655 14.0432C18.0203 13.7181 18.1937 13.4022 18.3176 13.0647C18.4507 12.7364 18.5839 12.4081 18.7171 12.083C18.8286 11.7516 18.9401 11.4234 19.0485 11.1013C19.1692 10.7823 19.2343 10.451 19.3272 10.1382C19.4108 9.81924 19.5129 9.51576 19.5625 9.20608C19.6833 8.59292 19.8164 8.01382 19.8753 7.47189C19.9155 7.20247 19.9527 6.94234 19.9868 6.6946C20.0085 6.44376 20.027 6.20531 20.0456 5.98234C20.0642 5.75937 20.0797 5.54879 20.0951 5.35679C20.1137 5.17408 20.1045 4.98827 20.1107 4.82724C20.1199 4.26053 20.1323 3.9075 20.1354 3.83008C20.1695 4.30079 20.1849 4.7746 20.1849 5.2546Z" fill="white"/>
</g>
<g style="mix-blend-mode:screen" opacity="0.4">
<path d="M9.76728 7.02434C9.77524 12.0907 7.90383 16.9799 4.51515 20.7462C4.51205 20.7524 4.50896 20.7524 4.50586 20.7555C4.50586 20.7524 4.50896 20.7493 4.51205 20.7462C4.55541 20.6873 4.74741 20.4272 5.06328 20.0153C5.23051 19.7738 5.44418 19.4889 5.66715 19.1451C5.89012 18.8014 6.14096 18.4112 6.3918 17.9776C6.52496 17.764 6.64883 17.5348 6.7758 17.2964C6.90277 17.0579 7.03902 16.8133 7.16289 16.5531C7.29296 16.2961 7.42302 16.0329 7.5407 15.7542C7.65838 15.4754 7.79154 15.1998 7.89993 14.9087C8.0176 14.6176 8.13528 14.3234 8.23438 14.0169C8.34277 13.7165 8.44496 13.4068 8.53786 13.094C8.58741 12.9361 8.63386 12.7782 8.68341 12.6202L8.80728 12.1402C8.89399 11.8212 8.96212 11.4961 9.02715 11.1709C9.1666 10.5233 9.27307 9.86907 9.34612 9.21066C9.41735 8.56034 9.47309 7.91621 9.48857 7.29066C9.54949 5.33591 9.36641 3.38123 8.94354 1.47182C8.84135 1.0042 8.76702 0.697618 8.74225 0.598521C8.73915 0.592327 8.73915 0.586137 8.73606 0.579943C8.73429 0.57496 8.73324 0.569736 8.73296 0.564453C8.73534 0.569479 8.73742 0.574654 8.73915 0.579943C8.74073 0.586288 8.74281 0.592501 8.74535 0.598521C9.42289 2.67313 9.76781 4.84189 9.76728 7.02434Z" fill="white"/>
</g>
<g style="mix-blend-mode:multiply" opacity="0.25">
<path d="M24.0003 11.9991C24.0002 15.1817 22.7359 18.2339 20.4854 20.4843C18.235 22.7348 15.1828 23.999 12.0002 23.9991C12.0002 23.9991 12.1055 23.9898 12.3037 23.9713C12.505 23.9589 12.793 23.9155 13.1584 23.866C13.5239 23.8071 13.9636 23.7204 14.4591 23.5966C15.0091 23.4465 15.5499 23.2645 16.0787 23.0515C16.6985 22.7936 17.2971 22.4871 17.8686 22.1349C18.4996 21.7399 19.0954 21.2913 19.6493 20.794C20.2379 20.2613 20.7741 19.6733 21.2503 19.0381C21.7446 18.3866 22.1671 17.6837 22.5107 16.9416C22.8617 16.2019 23.1347 15.4277 23.3252 14.6314C23.5092 13.8601 23.6191 13.0731 23.6534 12.2809C23.6834 11.536 23.6482 10.79 23.5481 10.0512C23.4557 9.38712 23.3096 8.73156 23.1115 8.09099C22.9418 7.54565 22.737 7.01189 22.4983 6.49305C22.2784 6.03163 22.0679 5.63525 21.879 5.31938C21.6901 5.0035 21.5321 4.75576 21.4175 4.59473C21.3308 4.47086 21.2782 4.39344 21.2565 4.35938C23.0342 6.50795 24.0048 9.21044 24.0003 11.9991Z" fill="#0B0B0B"/>
</g>
<g style="mix-blend-mode:screen" opacity="0.4">
<path d="M1.93574 0.269418L0.325412 0.309678L0.36257 2.55174C0.378054 3.40026 0.374967 4.25187 0.38116 5.10349C0.387354 5.9551 0.387354 6.80362 0.38116 7.65214C0.374967 8.50065 0.378054 9.35227 0.36257 10.2039L0.340902 11.4798L0.334702 12.1084C0.337799 12.3221 0.331605 12.5389 0.343993 12.7401C0.357182 13.1527 0.393368 13.5642 0.45238 13.9727C0.511219 14.3845 0.594838 14.7933 0.690838 15.199C0.788904 15.6036 0.908811 16.0027 1.05005 16.3943C1.18941 16.7907 1.35355 17.1778 1.53006 17.5587C1.71587 17.9334 1.90477 18.3112 2.12774 18.6736C2.33832 19.0297 2.57368 19.3796 2.81522 19.7203C0.99404 17.5604 -0.00324853 14.8252 0.000253332 12V0H7.74219C6.45083 0.0929033 5.16257 0.148643 3.87122 0.201289L1.93574 0.269418Z" fill="white"/>
</g>
<defs>
<linearGradient id="paint0_linear_569_4240" x1="22.0091" y1="6.81657" x2="10.9965" y2="19.5568" gradientUnits="userSpaceOnUse">
<stop stop-color="#4333F5"/>
<stop offset="1" stop-color="#1E015C"/>
</linearGradient>
<linearGradient id="paint1_linear_569_4240" x1="12.1846" y1="1.29803" x2="12.1846" y2="21.6889" gradientUnits="userSpaceOnUse">
<stop stop-color="#4200FC"/>
<stop offset="1" stop-color="#5E00F8"/>
</linearGradient>
<linearGradient id="paint2_linear_569_4240" x1="4.88386" y1="-0.0422091" x2="4.88386" y2="21.9487" gradientUnits="userSpaceOnUse">
<stop stop-color="#7F53FC"/>
<stop offset="1" stop-color="#4F00F8"/>
</linearGradient>
</defs>
</svg>
