<svg width="72" height="72" viewBox="0 0 72 72" fill="none" xmlns="http://www.w3.org/2000/svg">
<path fill-rule="evenodd" clip-rule="evenodd" d="M31 0.999936H40.9999C57.5685 0.999936 70.9999 14.4311 70.9999 30.9999V40.9999C70.9999 57.5682 57.5685 70.9998 40.9999 70.9998H31C14.4315 70.9998 0.999936 57.5682 0.999936 40.9999V30.9999C0.999936 14.4311 14.4315 0.999936 31 0.999936Z" fill="white"/>
<path d="M20.59 40.78C20.59 37.32 21.21 34.61 22.45 32.65C23.71 30.69 25.79 29.71 28.69 29.71C31.59 29.71 33.66 30.69 34.9 32.65C36.16 34.61 36.79 37.32 36.79 40.78C36.79 44.26 36.16 46.99 34.9 48.97C33.66 50.95 31.59 51.94 28.69 51.94C25.79 51.94 23.71 50.95 22.45 48.97C21.21 46.99 20.59 44.26 20.59 40.78ZM32.65 40.78C32.65 39.3 32.55 38.06 32.35 37.06C32.17 36.04 31.79 35.21 31.21 34.57C30.65 33.93 29.81 33.61 28.69 33.61C27.57 33.61 26.72 33.93 26.14 34.57C25.58 35.21 25.2 36.04 25 37.06C24.82 38.06 24.73 39.3 24.73 40.78C24.73 42.3 24.82 43.58 25 44.62C25.18 45.64 25.56 46.47 26.14 47.11C26.72 47.73 27.57 48.04 28.69 48.04C29.81 48.04 30.66 47.73 31.24 47.11C31.82 46.47 32.2 45.64 32.38 44.62C32.56 43.58 32.65 42.3 32.65 40.78ZM39.4745 34V30.13H46.7045V52H42.3845V34H39.4745Z" fill="#22437D"/>
</svg>
