<svg width="57" height="57" viewBox="0 0 57 57" fill="none" xmlns="http://www.w3.org/2000/svg">
<path opacity="0.1" fill-rule="evenodd" clip-rule="evenodd" d="M24.5416 0.791616H32.4583C45.5751 0.791616 56.2083 11.4246 56.2083 24.5416V32.4583C56.2083 45.5748 45.5751 56.2082 32.4583 56.2082H24.5416C11.4249 56.2082 0.791616 45.5748 0.791616 32.4583V24.5416C0.791616 11.4246 11.4249 0.791616 24.5416 0.791616Z" fill="url(#paint0_linear_569_4331)"/>
<path fill-rule="evenodd" clip-rule="evenodd" d="M42.3891 25.2207C42.3936 25.3016 42.3877 25.3837 42.3675 25.4663L40.5607 32.7228C40.4695 33.088 40.1432 33.3455 39.7681 33.3476L28.9274 33.4025C28.926 33.4025 28.9247 33.4025 28.9232 33.4025H18.0825C17.7053 33.4025 17.3767 33.1442 17.2857 32.7769L15.4789 25.4927C15.458 25.4084 15.4521 25.3237 15.4573 25.2407C14.7583 25.0198 14.25 24.3631 14.25 23.5893C14.25 22.6338 15.0236 21.857 15.9746 21.857C16.9256 21.857 17.6993 22.6338 17.6993 23.5893C17.6993 24.1268 17.4538 24.6078 17.0696 24.9262L19.3317 27.2143C19.9034 27.7928 20.6967 28.1248 21.5083 28.1248C22.468 28.1248 23.383 27.6668 23.9592 26.9002L27.6769 21.954C27.3646 21.6408 27.1711 21.2079 27.1711 20.7303C27.1711 19.7752 27.9448 18.998 28.8958 18.998C29.8468 18.998 30.6204 19.7752 30.6204 20.7303C30.6204 21.1934 30.4373 21.6135 30.1413 21.9246C30.1423 21.9259 30.1436 21.9272 30.1445 21.9285L33.8351 26.8883C34.4112 27.6621 35.3294 28.1248 36.2918 28.1248C37.1109 28.1248 37.8812 27.8043 38.4603 27.2229L40.7366 24.9368C40.3443 24.6189 40.0923 24.1337 40.0923 23.5893C40.0923 22.6338 40.866 21.857 41.817 21.857C42.768 21.857 43.5417 22.6338 43.5417 23.5893C43.5417 24.3422 43.0592 24.9832 42.3891 25.2207ZM40.3844 35.9861C40.3844 35.5311 40.0166 35.1616 39.5631 35.1616H18.3198C17.8662 35.1616 17.4985 35.5311 17.4985 35.9861V37.9652C17.4985 38.4211 17.8662 38.7901 18.3198 38.7901H39.5631C40.0166 38.7901 40.3844 38.4211 40.3844 37.9652V35.9861Z" fill="#FE5868"/>
<defs>
<linearGradient id="paint0_linear_569_4331" x1="32.7855" y1="89.7855" x2="89.7855" y2="24.2145" gradientUnits="userSpaceOnUse">
<stop stop-color="#FF5858"/>
<stop offset="1" stop-color="#F857A6"/>
</linearGradient>
</defs>
</svg>
