<svg width="57" height="57" viewBox="0 0 57 57" fill="none" xmlns="http://www.w3.org/2000/svg">
<path opacity="0.1" fill-rule="evenodd" clip-rule="evenodd" d="M24.5416 0.791616H32.4583C45.575 0.791616 56.2083 11.4246 56.2083 24.5416V32.4583C56.2083 45.5748 45.575 56.2082 32.4583 56.2082H24.5416C11.4249 56.2082 0.791673 45.5748 0.791673 32.4583V24.5416C0.791673 11.4246 11.4249 0.791616 24.5416 0.791616Z" fill="url(#paint0_linear_569_4318)"/>
<path fill-rule="evenodd" clip-rule="evenodd" d="M31.217 32.9635C31.3848 32.7932 31.4688 32.5923 31.4688 32.36V30.2157H40.3749V36.649C40.3749 37.2381 40.1674 37.7433 39.752 38.163C39.3368 38.583 38.8375 38.7929 38.2545 38.7929H18.7455C18.1623 38.7929 17.6631 38.583 17.2478 38.163C16.8324 37.7433 16.6249 37.2381 16.6249 36.649V30.2157H25.5311V32.36C25.5311 32.5923 25.6151 32.7932 25.783 32.9635C25.9509 33.1329 26.1497 33.218 26.3795 33.218H30.6205C30.8502 33.218 31.0491 33.1329 31.217 32.9635ZM30.1965 30.2157H26.8034V31.9309H30.1965V30.2157ZM39.752 22.2684C39.3368 21.8478 38.8375 21.638 38.2545 21.638H33.5891V19.4937C33.5891 19.1362 33.4655 18.8327 33.218 18.582C32.9709 18.3326 32.6703 18.207 32.317 18.207H24.683C24.3296 18.207 24.0293 18.3326 23.7819 18.582C23.5344 18.8323 23.4108 19.1362 23.4108 19.4937V21.638H18.7455C18.1624 21.638 17.6631 21.8478 17.2478 22.2684C16.8325 22.6876 16.6249 23.1924 16.6249 23.7823V28.929H40.3749V23.7823C40.3749 23.1924 40.1674 22.6876 39.752 22.2684ZM31.8928 21.638H25.1071V19.9223H31.8928V21.638Z" fill="#FF4550"/>
<defs>
<linearGradient id="paint0_linear_569_4318" x1="32.7855" y1="89.7855" x2="89.7855" y2="24.2145" gradientUnits="userSpaceOnUse">
<stop stop-color="#FF416C"/>
<stop offset="1" stop-color="#FF4B2B"/>
</linearGradient>
</defs>
</svg>
