<svg width="96" height="104" viewBox="0 0 96 104" fill="none" xmlns="http://www.w3.org/2000/svg">
<g filter="url(#filter0_d_569_4283)">
<path fill-rule="evenodd" clip-rule="evenodd" d="M47.663 16.9999C62.3642 16.9999 74.2819 28.8644 74.2819 43.4999C74.2819 58.1353 62.3642 69.9999 47.663 69.9999C32.9619 69.9999 21.0442 58.1353 21.0442 43.4999C21.0442 28.8644 32.9619 16.9999 47.663 16.9999Z" fill="url(#paint0_linear_569_4283)"/>
</g>
<path fill-rule="evenodd" clip-rule="evenodd" d="M42.139 0.999936H52.1838C68.8266 0.999936 82.3183 14.4311 82.3183 30.9999V40.9999C82.3183 57.5682 68.8266 70.9998 52.1838 70.9998H42.139C25.4962 70.9998 12.0045 57.5682 12.0045 40.9999V30.9999C12.0045 14.4311 25.4962 0.999936 42.139 0.999936Z" fill="url(#paint1_linear_569_4283)"/>
<path fill-rule="evenodd" clip-rule="evenodd" d="M50.6086 41.6378C50.8215 41.4228 50.9281 41.169 50.9281 40.8755V38.1669H62.2283V46.2932C62.2283 47.0373 61.965 47.6754 61.438 48.2055C60.9111 48.7362 60.2776 49.0012 59.5379 49.0012H34.7845C34.0445 49.0012 33.411 48.7362 32.8842 48.2055C32.3571 47.6754 32.0937 47.0373 32.0937 46.2932V38.1669H43.3942V40.8755C43.3942 41.169 43.5008 41.4228 43.7138 41.6378C43.9268 41.8518 44.179 41.9593 44.4706 41.9593H49.8518C50.1432 41.9593 50.3956 41.8518 50.6086 41.6378ZM49.3138 38.1669H45.0085V40.3335H49.3138V38.1669ZM61.4377 28.1282C60.9109 27.597 60.2774 27.3319 59.5376 27.3319H53.6181V24.6233C53.6181 24.1717 53.4613 23.7884 53.1472 23.4717C52.8336 23.1567 52.4522 22.998 52.004 22.998H42.3179C41.8694 22.998 41.4884 23.1567 41.1744 23.4717C40.8605 23.7878 40.7036 24.1717 40.7036 24.6233V27.3319H34.7842C34.0443 27.3319 33.4108 27.597 32.8839 28.1282C32.3569 28.6577 32.0935 29.2953 32.0935 30.0405V36.5416H62.228V30.0405C62.228 29.2953 61.9648 28.6577 61.4377 28.1282ZM51.4658 27.3319H42.856V25.1647H51.4658V27.3319Z" fill="white"/>
<defs>
<filter id="filter0_d_569_4283" x="0.0441895" y="9" width="95.2378" height="95" filterUnits="userSpaceOnUse" color-interpolation-filters="sRGB">
<feFlood flood-opacity="0" result="BackgroundImageFix"/>
<feColorMatrix in="SourceAlpha" type="matrix" values="0 0 0 0 0 0 0 0 0 0 0 0 0 0 0 0 0 0 127 0" result="hardAlpha"/>
<feOffset dy="13"/>
<feGaussianBlur stdDeviation="10.5"/>
<feColorMatrix type="matrix" values="0 0 0 0 1 0 0 0 0 0.266667 0 0 0 0 0.341176 0 0 0 0.3 0"/>
<feBlend mode="normal" in2="BackgroundImageFix" result="effect1_dropShadow_569_4283"/>
<feBlend mode="normal" in="SourceGraphic" in2="effect1_dropShadow_569_4283" result="shape"/>
</filter>
<linearGradient id="paint0_linear_569_4283" x1="75.2864" y1="16" x2="20.287" y2="71.2461" gradientUnits="userSpaceOnUse">
<stop offset="0.0001" stop-color="#68DBF2"/>
<stop offset="1" stop-color="#509CF5"/>
</linearGradient>
<linearGradient id="paint1_linear_569_4283" x1="83.3229" y1="0" x2="11.3236" y2="72.3221" gradientUnits="userSpaceOnUse">
<stop offset="0.0001" stop-color="#68DBF2"/>
<stop offset="1" stop-color="#509CF5"/>
</linearGradient>
</defs>
</svg>
