<svg width="72" height="72" viewBox="0 0 72 72" fill="none" xmlns="http://www.w3.org/2000/svg">
<path fill-rule="evenodd" clip-rule="evenodd" d="M31 0.999936H40.9999C57.5685 0.999936 70.9999 14.4311 70.9999 30.9999V40.9999C70.9999 57.5682 57.5685 70.9998 40.9999 70.9998H31C14.4315 70.9998 0.999936 57.5682 0.999936 40.9999V30.9999C0.999936 14.4311 14.4315 0.999936 31 0.999936Z" fill="white"/>
<path d="M28.09 49.3C26.49 49.3 25.11 48.86 23.95 47.98C22.81 47.1 21.93 45.86 21.31 44.26C20.69 42.64 20.38 40.72 20.38 38.5C20.38 36.28 20.69 34.37 21.31 32.77C21.93 31.15 22.81 29.9 23.95 29.02C25.11 28.14 26.49 27.7 28.09 27.7C29.69 27.7 31.07 28.14 32.23 29.02C33.39 29.9 34.28 31.15 34.9 32.77C35.52 34.37 35.83 36.28 35.83 38.5C35.83 40.72 35.52 42.64 34.9 44.26C34.28 45.86 33.39 47.1 32.23 47.98C31.07 48.86 29.69 49.3 28.09 49.3ZM28.09 46.36C29.55 46.36 30.68 45.68 31.48 44.32C32.28 42.94 32.68 41 32.68 38.5C32.68 36 32.28 34.07 31.48 32.71C30.68 31.33 29.55 30.64 28.09 30.64C26.63 30.64 25.5 31.33 24.7 32.71C23.9 34.07 23.5 36 23.5 38.5C23.5 41 23.9 42.94 24.7 44.32C25.5 45.68 26.63 46.36 28.09 46.36ZM44.7527 49.3C43.2727 49.3 41.9827 48.96 40.8827 48.28C39.8027 47.6 38.7827 46.46 37.8227 44.86L40.3427 43.27C40.8427 44.01 41.3327 44.62 41.8127 45.1C42.3127 45.56 42.8227 45.9 43.3427 46.12C43.8627 46.34 44.4127 46.45 44.9927 46.45C45.6927 46.45 46.3427 46.28 46.9427 45.94C47.5427 45.58 48.0227 45.09 48.3827 44.47C48.7427 43.85 48.9227 43.15 48.9227 42.37C48.9227 41.59 48.7827 40.93 48.5027 40.39C48.2227 39.83 47.8127 39.41 47.2727 39.13C46.7327 38.83 46.0927 38.68 45.3527 38.68C45.0127 38.68 44.6527 38.72 44.2727 38.8C43.9127 38.86 43.5227 38.96 43.1027 39.1C42.6827 39.22 42.2227 39.38 41.7227 39.58L40.8227 37.21L47.3027 30.07L47.9327 31H38.9927V28H51.0227L51.6227 29.2L44.7527 36.82L44.0027 36.04C44.1627 35.96 44.4227 35.89 44.7827 35.83C45.1627 35.75 45.4727 35.71 45.7127 35.71C46.5927 35.71 47.4127 35.88 48.1727 36.22C48.9527 36.54 49.6227 37 50.1827 37.6C50.7627 38.18 51.2127 38.87 51.5327 39.67C51.8727 40.45 52.0427 41.29 52.0427 42.19C52.0427 43.55 51.7127 44.77 51.0527 45.85C50.4127 46.91 49.5427 47.75 48.4427 48.37C47.3427 48.99 46.1127 49.3 44.7527 49.3Z" fill="#244784"/>
</svg>
