<svg width="72" height="72" viewBox="0 0 72 72" fill="none" xmlns="http://www.w3.org/2000/svg">
<path fill-rule="evenodd" clip-rule="evenodd" d="M31 0.999936H40.9999C57.5685 0.999936 70.9999 14.4311 70.9999 30.9999V40.9999C70.9999 57.5682 57.5685 70.9998 40.9999 70.9998H31C14.4315 70.9998 0.999936 57.5682 0.999936 40.9999V30.9999C0.999936 14.4311 14.4315 0.999936 31 0.999936Z" fill="white"/>
<path d="M28.09 49.3C26.49 49.3 25.11 48.86 23.95 47.98C22.81 47.1 21.93 45.86 21.31 44.26C20.69 42.64 20.38 40.72 20.38 38.5C20.38 36.28 20.69 34.37 21.31 32.77C21.93 31.15 22.81 29.9 23.95 29.02C25.11 28.14 26.49 27.7 28.09 27.7C29.69 27.7 31.07 28.14 32.23 29.02C33.39 29.9 34.28 31.15 34.9 32.77C35.52 34.37 35.83 36.28 35.83 38.5C35.83 40.72 35.52 42.64 34.9 44.26C34.28 45.86 33.39 47.1 32.23 47.98C31.07 48.86 29.69 49.3 28.09 49.3ZM28.09 46.36C29.55 46.36 30.68 45.68 31.48 44.32C32.28 42.94 32.68 41 32.68 38.5C32.68 36 32.28 34.07 31.48 32.71C30.68 31.33 29.55 30.64 28.09 30.64C26.63 30.64 25.5 31.33 24.7 32.71C23.9 34.07 23.5 36 23.5 38.5C23.5 41 23.9 42.94 24.7 44.32C25.5 45.68 26.63 46.36 28.09 46.36ZM40.0127 49L39.0227 46.54L45.4427 39.31C45.7827 38.95 46.1327 38.54 46.4927 38.08C46.8727 37.6 47.2327 37.11 47.5727 36.61C47.9127 36.11 48.1827 35.62 48.3827 35.14C48.6027 34.64 48.7127 34.17 48.7127 33.73C48.7127 33.09 48.5827 32.55 48.3227 32.11C48.0827 31.65 47.7227 31.3 47.2427 31.06C46.7827 30.82 46.2227 30.7 45.5627 30.7C44.9827 30.7 44.4127 30.87 43.8527 31.21C43.2927 31.55 42.7827 32.03 42.3227 32.65C41.8627 33.27 41.5027 33.99 41.2427 34.81L38.7527 33.25C39.0927 32.09 39.6027 31.1 40.2827 30.28C40.9827 29.44 41.8127 28.8 42.7727 28.36C43.7527 27.92 44.8127 27.7 45.9527 27.7C47.1327 27.7 48.1827 27.95 49.1027 28.45C50.0227 28.93 50.7427 29.61 51.2627 30.49C51.7827 31.35 52.0427 32.35 52.0427 33.49C52.0427 33.95 51.9927 34.42 51.8927 34.9C51.7927 35.38 51.6327 35.88 51.4127 36.4C51.1927 36.9 50.9127 37.43 50.5727 37.99C50.2327 38.53 49.8227 39.1 49.3427 39.7C48.8827 40.3 48.3527 40.93 47.7527 41.59L42.9827 46.78L42.3827 45.88H52.7027V49H40.0127Z" fill="#234582"/>
</svg>
